<svg width="77" height="62" viewBox="0 0 77 62" fill="none" xmlns="http://www.w3.org/2000/svg">
<g filter="url(#filter0_d_7_630)">
<path d="M47.875 24.875C47.875 27.3614 46.8873 29.746 45.1291 31.5041C43.371 33.2623 40.9864 34.25 38.5 34.25C36.0136 34.25 33.629 33.2623 31.8709 31.5041C30.1127 29.746 29.125 27.3614 29.125 24.875C29.125 22.3886 30.1127 20.004 31.8709 18.2459C33.629 16.4877 36.0136 15.5 38.5 15.5C40.9864 15.5 43.371 16.4877 45.1291 18.2459C46.8873 20.004 47.875 22.3886 47.875 24.875Z" fill="white"/>
<path d="M16 8C14.0109 8 12.1032 8.79018 10.6967 10.1967C9.29018 11.6032 8.5 13.5109 8.5 15.5V38C8.5 39.9891 9.29018 41.8968 10.6967 43.3033C12.1032 44.7098 14.0109 45.5 16 45.5H61C62.9891 45.5 64.8968 44.7098 66.3033 43.3033C67.7098 41.8968 68.5 39.9891 68.5 38V15.5C68.5 13.5109 67.7098 11.6032 66.3033 10.1967C64.8968 8.79018 62.9891 8 61 8H56.605C54.616 7.99958 52.7087 7.20912 51.3025 5.8025L48.1975 2.6975C46.7913 1.29088 44.884 0.500425 42.895 0.5H34.105C32.116 0.500425 30.2087 1.29088 28.8025 2.6975L25.6975 5.8025C24.2913 7.20912 22.384 7.99958 20.395 8H16ZM17.875 15.5C17.3777 15.5 16.9008 15.3025 16.5492 14.9508C16.1975 14.5992 16 14.1223 16 13.625C16 13.1277 16.1975 12.6508 16.5492 12.2992C16.9008 11.9475 17.3777 11.75 17.875 11.75C18.3723 11.75 18.8492 11.9475 19.2008 12.2992C19.5525 12.6508 19.75 13.1277 19.75 13.625C19.75 14.1223 19.5525 14.5992 19.2008 14.9508C18.8492 15.3025 18.3723 15.5 17.875 15.5ZM51.625 24.875C51.625 28.356 50.2422 31.6944 47.7808 34.1558C45.3194 36.6172 41.981 38 38.5 38C35.019 38 31.6806 36.6172 29.2192 34.1558C26.7578 31.6944 25.375 28.356 25.375 24.875C25.375 21.394 26.7578 18.0556 29.2192 15.5942C31.6806 13.1328 35.019 11.75 38.5 11.75C41.981 11.75 45.3194 13.1328 47.7808 15.5942C50.2422 18.0556 51.625 21.394 51.625 24.875Z" fill="white"/>
</g>
<defs>
<filter id="filter0_d_7_630" x="0.5" y="0.5" width="76" height="61" filterUnits="userSpaceOnUse" color-interpolation-filters="sRGB">
<feFlood flood-opacity="0" result="BackgroundImageFix"/>
<feColorMatrix in="SourceAlpha" type="matrix" values="0 0 0 0 0 0 0 0 0 0 0 0 0 0 0 0 0 0 127 0" result="hardAlpha"/>
<feOffset dy="8"/>
<feGaussianBlur stdDeviation="4"/>
<feComposite in2="hardAlpha" operator="out"/>
<feColorMatrix type="matrix" values="0 0 0 0 0 0 0 0 0 0 0 0 0 0 0 0 0 0 0.25 0"/>
<feBlend mode="normal" in2="BackgroundImageFix" result="effect1_dropShadow_7_630"/>
<feBlend mode="normal" in="SourceGraphic" in2="effect1_dropShadow_7_630" result="shape"/>
</filter>
</defs>
</svg>
