<svg width="19" height="21" viewBox="0 0 19 21" fill="none" xmlns="http://www.w3.org/2000/svg">
<path d="M1.5 4.67647L17.5 4.67647M13.5 19.5H5.5C4.39543 19.5 3.5 18.5519 3.5 17.3824V5.73529C3.5 5.15052 3.94772 4.67647 4.5 4.67647H14.5C15.0523 4.67647 15.5 5.15052 15.5 5.73529V17.3824C15.5 18.5519 14.6046 19.5 13.5 19.5ZM7.5 4.67647H11.5C12.0523 4.67647 12.5 4.20242 12.5 3.61765V2.55882C12.5 1.97405 12.0523 1.5 11.5 1.5H7.5C6.94772 1.5 6.5 1.97405 6.5 2.55882V3.61765C6.5 4.20242 6.94772 4.67647 7.5 4.67647Z" stroke="black" stroke-width="2" stroke-linecap="round"/>
</svg>
