<svg width="18" height="32" viewBox="0 0 18 32" fill="none" xmlns="http://www.w3.org/2000/svg">
<path d="M3.75 5.5C4.7165 5.5 5.5 4.7165 5.5 3.75C5.5 2.7835 4.7165 2 3.75 2C2.7835 2 2 2.7835 2 3.75C2 4.7165 2.7835 5.5 3.75 5.5Z" stroke="#0F172A" stroke-width="4" stroke-linecap="round" stroke-linejoin="round"/>
<path d="M3.75 17.75C4.7165 17.75 5.5 16.9665 5.5 16C5.5 15.0335 4.7165 14.25 3.75 14.25C2.7835 14.25 2 15.0335 2 16C2 16.9665 2.7835 17.75 3.75 17.75Z" stroke="#0F172A" stroke-width="4" stroke-linecap="round" stroke-linejoin="round"/>
<path d="M3.75 30C4.7165 30 5.5 29.2165 5.5 28.25C5.5 27.2835 4.7165 26.5 3.75 26.5C2.7835 26.5 2 27.2835 2 28.25C2 29.2165 2.7835 30 3.75 30Z" stroke="#0F172A" stroke-width="4" stroke-linecap="round" stroke-linejoin="round"/>
<path d="M14.25 5.5C15.2165 5.5 16 4.7165 16 3.75C16 2.7835 15.2165 2 14.25 2C13.2835 2 12.5 2.7835 12.5 3.75C12.5 4.7165 13.2835 5.5 14.25 5.5Z" stroke="#0F172A" stroke-width="4" stroke-linecap="round" stroke-linejoin="round"/>
<path d="M14.25 17.75C15.2165 17.75 16 16.9665 16 16C16 15.0335 15.2165 14.25 14.25 14.25C13.2835 14.25 12.5 15.0335 12.5 16C12.5 16.9665 13.2835 17.75 14.25 17.75Z" stroke="#0F172A" stroke-width="4" stroke-linecap="round" stroke-linejoin="round"/>
<path d="M14.25 30C15.2165 30 16 29.2165 16 28.25C16 27.2835 15.2165 26.5 14.25 26.5C13.2835 26.5 12.5 27.2835 12.5 28.25C12.5 29.2165 13.2835 30 14.25 30Z" stroke="#0F172A" stroke-width="4" stroke-linecap="round" stroke-linejoin="round"/>
</svg>
