<svg width="37" height="36" viewBox="0 0 37 36" fill="none" xmlns="http://www.w3.org/2000/svg">
<path d="M18.2559 0.464287C14.9392 0.464287 12.4715 0.503773 10.8526 0.582741C9.23377 0.661709 7.83208 0.938095 6.64756 1.41191C5.46304 1.88572 4.41671 2.57669 3.50857 3.48482C2.60044 4.39296 1.90947 5.43929 1.43566 6.62381C0.961847 7.80833 0.685458 9.21002 0.606489 10.8289C0.527521 12.4477 0.488037 14.9155 0.488037 18.2321C0.488037 21.5488 0.527521 24.0166 0.606489 25.6354C0.685458 27.2543 0.961847 28.656 1.43566 29.8405C1.90947 31.025 2.60044 32.0713 3.50857 32.9795C4.41671 33.8876 5.46304 34.5786 6.64756 35.0524C7.83208 35.5262 9.23377 35.8026 10.8526 35.8815C12.4715 35.9605 14.9392 36 18.2559 36C21.5726 36 24.0403 35.9605 25.6592 35.8815C27.278 35.8026 28.6797 35.5262 29.8642 35.0524C31.0487 34.5786 32.0951 33.8876 33.0032 32.9795C33.9114 32.0713 34.6023 31.025 35.0761 29.8405C35.5499 28.656 35.8263 27.2543 35.9053 25.6354C35.9843 24.0166 36.0238 21.5488 36.0238 18.2321C36.0238 14.9155 35.9843 12.4477 35.9053 10.8289C35.8263 9.21002 35.5499 7.80833 35.0761 6.62381C34.6023 5.43929 33.9114 4.39296 33.0032 3.48482C32.0951 2.57669 31.0487 1.88572 29.8642 1.41191C28.6797 0.938095 27.278 0.661709 25.6592 0.582741C24.0403 0.503773 21.5726 0.464287 18.2559 0.464287ZM16.716 3.6625H18.2559C21.5726 3.6625 23.9811 3.70198 25.4815 3.78095C26.745 3.85992 27.7913 4.05734 28.6205 4.37321C29.4496 4.68909 30.1604 5.14316 30.7526 5.73542C31.3449 6.32768 31.7989 7.03839 32.1148 7.86756C32.4307 8.69673 32.6281 9.74306 32.7071 11.0065C32.7861 12.5069 32.8255 14.9155 32.8255 18.2321C32.8255 21.5488 32.7861 23.9573 32.7071 25.4577C32.6281 26.7212 32.4307 27.7676 32.1148 28.5967C31.7989 29.4259 31.3449 30.1366 30.7526 30.7289C30.1604 31.3211 29.4496 31.7752 28.6205 32.0911C27.7913 32.4069 26.745 32.6044 25.4815 32.6833C23.9021 32.7623 21.4936 32.8018 18.2559 32.8018C15.0182 32.8018 12.6097 32.7623 11.0303 32.6833C9.76681 32.6044 8.72048 32.4069 7.89131 32.0911C7.06214 31.7752 6.35143 31.3211 5.75917 30.7289C5.16691 30.1366 4.71284 29.4259 4.39697 28.5967C4.08109 27.7676 3.88367 26.7212 3.8047 25.4577C3.72574 23.8784 3.68625 21.4501 3.68625 18.1729C3.68625 14.8957 3.72574 12.5069 3.8047 11.0065C3.88367 9.74306 4.08109 8.69673 4.39697 7.86756C4.71284 7.03839 5.16691 6.32768 5.75917 5.73542C6.35143 5.14316 7.06214 4.68909 7.89131 4.37321C8.72048 4.05734 9.80629 3.85992 11.1488 3.78095C12.4912 3.70198 14.347 3.6625 16.716 3.6625ZM27.7321 6.62381C27.1793 6.62381 26.6858 6.82123 26.2514 7.21607C25.8171 7.61091 25.5999 8.10447 25.5999 8.69673C25.5999 9.28899 25.8171 9.80228 26.2514 10.2366C26.6858 10.6709 27.199 10.8881 27.7913 10.8881C28.3836 10.8881 28.8771 10.6709 29.272 10.2366C29.6668 9.80228 29.8642 9.28899 29.8642 8.69673C29.8642 8.10447 29.6668 7.61091 29.272 7.21607C28.8771 6.82123 28.3638 6.62381 27.7321 6.62381ZM18.2559 9.11131C16.5976 9.11131 15.0577 9.50615 13.6363 10.2958C12.2148 11.0855 11.0895 12.1911 10.2604 13.6125C9.43119 15.0339 9.01661 16.5738 9.01661 18.2321C9.01661 19.8905 9.43119 21.4304 10.2604 22.8518C11.0895 24.2732 12.2148 25.3788 13.6363 26.1685C15.0577 26.9581 16.5976 27.353 18.2559 27.353C19.9142 27.353 21.4344 26.9384 22.8163 26.1092C24.1983 25.2801 25.2841 24.1745 26.0738 22.7926C26.8634 21.4106 27.2583 19.8905 27.2583 18.2321C27.2583 16.5738 26.8634 15.0537 26.0738 13.6717C25.2841 12.2898 24.1983 11.1842 22.8163 10.3551C21.4344 9.52589 19.9142 9.11131 18.2559 9.11131ZM18.2559 12.3095C19.2825 12.3095 20.2696 12.5662 21.2172 13.0795C22.1648 13.5928 22.8953 14.3232 23.4086 15.2708C23.9219 16.2185 24.1785 17.2056 24.1785 18.2321C24.1785 19.2587 23.9219 20.2458 23.4086 21.1935C22.8953 22.1411 22.1648 22.8715 21.2172 23.3848C20.2696 23.8981 19.2825 24.1548 18.2559 24.1548C16.5976 24.1548 15.1959 23.5822 14.0508 22.4372C12.9058 21.2922 12.3333 19.8905 12.3333 18.2321C12.3333 16.5738 12.9058 15.1721 14.0508 14.0271C15.1959 12.882 16.5976 12.3095 18.2559 12.3095Z" fill="#58AF47"/>
</svg>
