<svg width="36" height="36" viewBox="0 0 36 36" fill="none" xmlns="http://www.w3.org/2000/svg">
<path d="M0.464355 2.95179C0.464355 2.32004 0.721002 1.74752 1.2343 1.23423C1.74759 0.720932 2.35959 0.464287 3.07031 0.464287H33.3941C34.1048 0.464287 34.7168 0.720932 35.2301 1.23423C35.7434 1.74752 36.0001 2.32004 36.0001 2.95179V33.5125C36.0001 34.1442 35.7434 34.7168 35.2301 35.2301C34.7168 35.7434 34.1048 36 33.3941 36H3.07031C2.35959 36 1.74759 35.7434 1.2343 35.2301C0.721002 34.7168 0.464355 34.1442 0.464355 33.5125V2.95179ZM11.4804 30.1958V14.2048H6.15007V30.1958H11.4804ZM8.75602 11.9542C9.70364 11.9542 10.4538 11.6975 11.0066 11.1842C11.5594 10.6709 11.816 10.0194 11.7766 9.22976C11.7371 8.44008 11.4607 7.76885 10.9474 7.21607C10.4341 6.66329 9.72338 6.38691 8.81525 6.38691C7.90711 6.38691 7.17666 6.66329 6.62388 7.21607C6.0711 7.76885 5.79471 8.44008 5.79471 9.22976C5.79471 10.0194 6.0711 10.6709 6.62388 11.1842C7.17666 11.6975 7.88737 11.9542 8.75602 11.9542ZM19.6536 30.1958V21.1935C19.6536 20.6407 19.7326 20.2063 19.8905 19.8905C20.0485 19.4167 20.3644 18.9823 20.8382 18.5875C21.312 18.1927 21.9042 17.9952 22.615 17.9952C23.5626 17.9952 24.2535 18.3111 24.6879 18.9429C25.1222 19.5746 25.3394 20.4827 25.3394 21.6673V30.1958H30.6697V20.9565C30.6697 18.5875 30.0972 16.791 28.9522 15.567C27.8071 14.343 26.3265 13.731 24.5102 13.731C23.2467 13.731 22.1806 14.0468 21.312 14.6786C20.6802 15.0734 20.1275 15.6657 19.6536 16.4554V14.2048H14.3233C14.4023 14.8365 14.4023 17.6794 14.3233 22.7333V30.1958H19.6536Z" fill="#58AF47"/>
</svg>
