<svg width="37" height="30" viewBox="0 0 37 30" fill="none" xmlns="http://www.w3.org/2000/svg">
<path d="M12.1106 29.6484C16.3749 29.6484 20.1654 28.5824 23.482 26.4502C26.4828 24.476 28.8124 21.8701 30.4707 18.6324C32.0501 15.4736 32.8398 12.2359 32.8398 8.91927V7.97165C34.2612 6.94506 35.4852 5.68157 36.5118 4.18118C35.1693 4.81292 33.7874 5.20776 32.366 5.3657C33.9453 4.41808 35.0114 3.07562 35.5642 1.33832C34.0638 2.20697 32.5239 2.79923 30.9445 3.1151C29.76 1.93058 28.3583 1.20012 26.7395 0.923735C25.1206 0.647345 23.5807 0.903992 22.1198 1.69367C20.6589 2.48336 19.5928 3.6284 18.9216 5.12879C18.2504 6.62919 18.1122 8.16907 18.507 9.74844C15.5852 9.5905 12.8016 8.86004 10.1561 7.55707C7.5107 6.25409 5.27984 4.45756 3.46357 2.16748C2.51596 3.82582 2.25931 5.58286 2.69363 7.43862C3.12796 9.29437 4.1348 10.775 5.71417 11.8806C4.52965 11.8016 3.42409 11.4857 2.3975 10.933V11.0514C2.3975 12.7887 2.95028 14.3286 4.05584 15.6711C5.16139 17.0135 6.54334 17.8427 8.20167 18.1586C7.56992 18.3955 6.93818 18.5139 6.30643 18.5139C5.83262 18.5139 5.3983 18.4744 5.00346 18.3955C5.47726 19.8169 6.32617 21.0014 7.55018 21.949C8.77419 22.8967 10.1759 23.3705 11.7552 23.3705C10.4917 24.397 9.07032 25.1867 7.49095 25.7395C5.91159 26.2923 4.33222 26.5687 2.75286 26.5687C2.12111 26.5687 1.52885 26.5292 0.976074 26.4502C4.37171 28.5824 8.08322 29.6484 12.1106 29.6484Z" fill="#58AF47"/>
</svg>
