<svg width="36" height="36" viewBox="0 0 36 36" fill="none" xmlns="http://www.w3.org/2000/svg">
<path d="M35.5357 18.3506C35.5357 15.1129 34.746 12.1318 33.1667 9.40744C31.5873 6.68304 29.4354 4.51141 26.711 2.89256C23.9866 1.27371 21.0056 0.464287 17.7679 0.464287C14.5302 0.464287 11.5491 1.27371 8.8247 2.89256C6.1003 4.51141 3.94841 6.68304 2.36905 9.40744C0.789683 12.1318 0 15.1129 0 18.3506C0 21.2724 0.651488 23.9968 1.95446 26.5238C3.25744 29.0508 5.05397 31.1435 7.34405 32.8018C9.63413 34.4601 12.2006 35.5262 15.0435 36V23.5625H10.4238V18.3506H15.0435V14.4417C15.0435 12.2306 15.6357 10.513 16.8202 9.28899C18.0048 8.06498 19.6236 7.45298 21.6768 7.45298C22.4665 7.45298 23.3746 7.49246 24.4012 7.57143L25.7042 7.80833V12.1911H23.4536C22.427 12.1911 21.6768 12.4477 21.203 12.961C20.7292 13.4743 20.4923 14.1653 20.4923 15.0339V18.3506H25.4673L24.6381 23.5625H20.4923V36C23.3351 35.5262 25.9016 34.4601 28.1917 32.8018C30.4817 31.1435 32.2783 29.0508 33.5812 26.5238C34.8842 23.9968 35.5357 21.2724 35.5357 18.3506Z" fill="#58AF47"/>
</svg>
