<svg width="40" height="40" viewBox="0 0 40 40" fill="none" xmlns="http://www.w3.org/2000/svg">
<g clip-path="url(#clip0_47_600)">
<g clip-path="url(#clip1_47_600)">
<mask id="mask0_47_600" style="mask-type:luminance" maskUnits="userSpaceOnUse" x="0" y="0" width="40" height="40">
<path d="M40 0H0V40H40V0Z" fill="white"/>
</mask>
<g mask="url(#mask0_47_600)">
<path d="M39.9999 19.865C39.9999 17.2287 36.6986 14.73 31.6374 13.1812C32.8049 8.02249 32.2862 3.91749 29.9987 2.60374C29.4443 2.29278 28.8166 2.13609 28.1811 2.14999V3.95874C28.5025 3.94869 28.821 4.02143 29.1061 4.16999C30.2099 4.80249 30.6874 7.21124 30.3149 10.31C30.2261 11.0725 30.0799 11.875 29.9012 12.695C28.2056 12.2865 26.4847 11.9912 24.7499 11.8112C23.7164 10.3855 22.5889 9.03043 21.3749 7.75498C24.0199 5.29748 26.4999 3.95123 28.1887 3.95123V2.14124C25.9574 2.14124 23.0374 3.73123 20.0849 6.48873C17.1324 3.74748 14.2099 2.17374 11.9812 2.17374V3.98248C13.6599 3.98248 16.1499 5.32124 18.7949 7.76249C17.5869 9.0334 16.4676 10.3857 15.4449 11.81C13.7068 11.9881 11.9831 12.2863 10.2862 12.7025C10.0999 11.8912 9.9611 11.105 9.86485 10.35C9.48985 7.25124 9.95361 4.84249 11.0487 4.20124C11.3348 4.04828 11.657 3.97529 11.9812 3.98998V2.18123C11.3405 2.16734 10.7077 2.32393 10.1474 2.63498C7.86737 3.94873 7.35737 8.04498 8.53362 13.1875C3.48862 14.745 0.203613 17.235 0.203613 19.8637C0.203613 22.4925 3.50487 24.9987 8.56612 26.5475C7.39862 31.7062 7.91736 35.8112 10.2049 37.125C10.7617 37.4368 11.3919 37.5935 12.0299 37.5787C14.2612 37.5787 17.1812 35.9887 20.1337 33.2312C23.0862 35.9725 26.0087 37.5462 28.2374 37.5462C28.8781 37.5601 29.5109 37.4035 30.0712 37.0925C32.3512 35.7787 32.8612 31.6825 31.6849 26.54C36.7149 24.9912 39.9999 22.4925 39.9999 19.865ZM29.4387 14.455C29.1387 15.5012 28.7649 16.58 28.3436 17.6587C28.0111 17.01 27.6624 16.3612 27.2811 15.7125C26.8999 15.0637 26.5099 14.4312 26.1137 13.815C27.2649 13.9837 28.3762 14.19 29.4387 14.455ZM25.7237 23.0937C25.0912 24.1887 24.4424 25.2275 23.7686 26.1925C22.5599 26.2975 21.3349 26.355 20.1024 26.355C18.8699 26.355 17.6524 26.2987 16.4524 26.2012C15.7791 25.2362 15.1249 24.2087 14.4899 23.1187C13.8732 22.0562 13.3107 20.98 12.8024 19.89C13.3024 18.8025 13.8737 17.7162 14.4812 16.6537C15.1137 15.5587 15.7624 14.52 16.4361 13.555C17.6449 13.45 18.8699 13.3925 20.1024 13.3925C21.3349 13.3925 22.5524 13.4487 23.7524 13.5462C24.4257 14.5112 25.0799 15.5387 25.7149 16.6287C26.3316 17.6912 26.8941 18.7675 27.4024 19.8575C26.8924 20.9437 26.3299 22.0312 25.7237 23.0937ZM28.3486 22.0387C28.7861 23.1262 29.1599 24.2125 29.4737 25.2675C28.4112 25.5275 27.2911 25.7462 26.1311 25.9162C26.5286 25.2912 26.9262 24.6512 27.2987 23.9937C27.6712 23.3362 28.0111 22.6875 28.3436 22.0387H28.3486ZM20.1236 30.6937C19.3297 29.8674 18.5787 29.0009 17.8737 28.0975C18.6037 28.13 19.3499 28.1537 20.1049 28.1537C20.8599 28.1537 21.6224 28.1375 22.3549 28.0975C21.6569 29.0026 20.9104 29.8693 20.1186 30.6937H20.1236ZM14.0799 25.9162C12.9287 25.7462 11.8162 25.5412 10.7537 25.275C11.0537 24.2287 11.4274 23.15 11.8487 22.0712C12.1812 22.72 12.5299 23.3687 12.9112 24.0175C13.2924 24.6662 13.6862 25.3 14.0799 25.9162ZM20.0799 9.04123C20.8739 9.8675 21.6249 10.7341 22.3299 11.6375C21.5999 11.605 20.8537 11.5812 20.0987 11.5812C19.3437 11.5812 18.5812 11.5975 17.8487 11.6375C18.5449 10.7308 19.2897 9.8624 20.0799 9.03623V9.04123ZM14.0799 13.8187C13.6824 14.4437 13.2849 15.0837 12.9124 15.7412C12.5399 16.3987 12.1899 17.0387 11.8574 17.6875C11.4199 16.6 11.0461 15.5137 10.7324 14.4587C11.7961 14.2087 12.9162 13.9837 14.0799 13.8137V13.8187ZM6.73861 23.9737C3.86361 22.7487 2.00986 21.1425 2.00986 19.8687C2.00986 18.595 3.86736 16.9812 6.73861 15.7637C7.43611 15.4637 8.19862 15.1962 8.98862 14.945C9.48481 16.6309 10.0946 18.2814 10.8136 19.885C10.1021 21.4804 9.50029 23.1226 9.01236 24.8C8.20486 24.55 7.43986 24.2662 6.73486 23.9687L6.73861 23.9737ZM11.1024 35.565C9.99861 34.9325 9.52112 32.5237 9.89362 29.425C9.98237 28.6625 10.1286 27.86 10.3074 27.04C12.003 27.4485 13.7239 27.7438 15.4587 27.9237C16.4921 29.3494 17.6197 30.7045 18.8336 31.98C16.1899 34.4375 13.7086 35.7837 12.0199 35.7837C11.6991 35.787 11.3826 35.7106 11.0986 35.5612L11.1024 35.565ZM30.3424 29.3837C30.7174 32.4825 30.2537 34.8912 29.1587 35.5325C28.8725 35.6854 28.5503 35.7584 28.2262 35.7437C26.5474 35.7437 24.0574 34.405 21.4124 31.9637C22.6204 30.6928 23.7397 29.3405 24.7624 27.9162C26.5005 27.7381 28.2242 27.4399 29.9212 27.0237C30.102 27.8012 30.2418 28.5878 30.3399 29.38L30.3424 29.3837ZM33.4674 23.9737C32.7699 24.2737 32.0074 24.5412 31.2174 24.7925C30.7212 23.1065 30.1115 21.4561 29.3924 19.8525C30.1039 18.257 30.7057 16.6149 31.1936 14.9375C31.9961 15.1875 32.7586 15.465 33.4724 15.765C36.3474 16.99 38.2012 18.5962 38.2012 19.87C38.2012 21.1437 36.3262 22.7525 33.4624 23.9687L33.4674 23.9737Z" fill="#61DAFB"/>
<path d="M20.0952 23.5725C22.1428 23.5725 23.8027 21.9126 23.8027 19.865C23.8027 17.8174 22.1428 16.1575 20.0952 16.1575C18.0476 16.1575 16.3877 17.8174 16.3877 19.865C16.3877 21.9126 18.0476 23.5725 20.0952 23.5725Z" fill="#61DAFB"/>
</g>
</g>
</g>
<defs>
<clipPath id="clip0_47_600">
<rect width="40" height="40" fill="white"/>
</clipPath>
<clipPath id="clip1_47_600">
<rect width="40" height="40" fill="white"/>
</clipPath>
</defs>
</svg>
