<svg width="20" height="21" viewBox="0 0 20 21" fill="none" xmlns="http://www.w3.org/2000/svg">
<path d="M17 8.38235V3.61765C17 2.4481 16.1046 1.5 15 1.5H3C1.89543 1.5 1 2.4481 1 3.61765V11.9041C1 13.0736 1.89543 14.0217 3 14.0217H4.56522V18.4412L8.73913 14.0217H9M14.163 16.7379L16.7717 19.5V16.7379H17C18.1046 16.7379 19 15.7897 19 14.6202V11.0294C19 9.85987 18.1046 8.91177 17 8.91177H11C9.89543 8.91177 9 9.85987 9 11.0294V14.6202C9 15.7898 9.89543 16.7379 11 16.7379H14.163Z" stroke="black" stroke-width="1.5" stroke-linecap="round" stroke-linejoin="round"/>
</svg>
