<svg width="20" height="21" viewBox="0 0 20 21" fill="none" xmlns="http://www.w3.org/2000/svg">
<path d="M11.6641 12.7138V4.95807M11.6641 12.7138L17.5801 16.0943C17.9679 16.316 18.4504 16.036 18.4504 15.5894V2.08255C18.4504 1.63591 17.9679 1.35591 17.5801 1.5775L11.6641 4.95807M11.6641 12.7138H4.87787M11.6641 4.95807H4.87787C2.73618 4.95807 1 6.69425 1 8.83594C1 10.9776 2.73618 12.7138 4.87787 12.7138M4.87787 12.7138L5.61191 17.852C5.747 18.7976 6.55685 19.5 7.51207 19.5C8.68012 19.5 9.57746 18.4655 9.41226 17.3091L8.75574 12.7137L4.87787 12.7138Z" stroke="black" stroke-width="1.5"/>
</svg>
