<svg width="18" height="19" viewBox="0 0 18 19" fill="none" xmlns="http://www.w3.org/2000/svg">
<path d="M14.625 2.41489C14.625 1.90703 14.8028 1.41997 15.1193 1.06086C15.4357 0.701747 15.8649 0.5 16.3125 0.5C16.7601 0.5 17.1893 0.701747 17.5057 1.06086C17.8222 1.41997 18 1.90703 18 2.41489V16.4574C18 16.9653 17.8222 17.4524 17.5057 17.8115C17.1893 18.1706 16.7601 18.3723 16.3125 18.3723C15.8649 18.3723 15.4357 18.1706 15.1193 17.8115C14.8028 17.4524 14.625 16.9653 14.625 16.4574V16.1843C12.1927 14.6 9.57375 13.8315 6.849 13.5251L7.30463 16.9872C7.33522 17.1717 7.32961 17.3615 7.28817 17.5432C7.24674 17.7249 7.17051 17.894 7.06491 18.0385C6.95931 18.1829 6.82694 18.2992 6.67723 18.3789C6.52752 18.4587 6.36415 18.5 6.19875 18.5H5.58225C5.36357 18.5 5.14964 18.4276 4.96663 18.2918C4.78361 18.156 4.63944 17.9626 4.55175 17.7353L2.4705 13.28L2.24325 13.2762C1.64741 13.2695 1.07788 12.9967 0.658018 12.5169C0.238152 12.0371 0.00174582 11.3889 0 10.7128V8.15957C0.00200788 7.48335 0.238016 6.83508 0.657183 6.35442C1.07635 5.87375 1.64513 5.59916 2.241 5.58979C3.17253 5.57537 4.10378 5.54345 5.03437 5.49404C8.45775 5.29745 11.9509 4.41021 14.625 2.68681V2.41489ZM15.75 2.41489V16.4574C15.75 16.6267 15.8093 16.7891 15.9148 16.9088C16.0202 17.0285 16.1633 17.0957 16.3125 17.0957C16.4617 17.0957 16.6048 17.0285 16.7102 16.9088C16.8157 16.7891 16.875 16.6267 16.875 16.4574V2.41489C16.875 2.24561 16.8157 2.08325 16.7102 1.96355C16.6048 1.84384 16.4617 1.7766 16.3125 1.7766C16.1633 1.7766 16.0202 1.84384 15.9148 1.96355C15.8093 2.08325 15.75 2.24561 15.75 2.41489ZM14.625 4.1383C11.988 5.6766 8.76487 6.48979 5.625 6.73362V12.1374C5.8275 12.1502 6.02888 12.1655 6.22913 12.1834C9.11812 12.4247 11.9587 13.1332 14.625 14.7277V4.1383ZM4.5 12.0723V6.8C3.75323 6.83102 3.00618 6.85315 2.259 6.86638C1.95837 6.87039 1.67113 7.00812 1.45906 7.24996C1.247 7.4918 1.12704 7.81842 1.125 8.15957V10.7128C1.125 11.4149 1.629 11.9919 2.25675 12.0009C3.00479 12.0108 3.75264 12.0346 4.5 12.0723ZM3.76087 13.317L5.571 17.194L5.58225 17.2247H6.19875L6.1965 17.2068L5.69812 13.4204C5.05279 13.3762 4.40699 13.3413 3.76087 13.3157V13.317Z" fill="black"/>
</svg>
