<svg width="20" height="20" viewBox="0 0 20 20" fill="none" xmlns="http://www.w3.org/2000/svg">
<path d="M5.53716 4.0277C5.19134 4.25571 5.09585 4.72088 5.32385 5.06669C5.55186 5.4125 6.01703 5.508 6.36284 5.27999L5.53716 4.0277ZM14.8024 5.10703C15.0527 5.43707 15.5231 5.50173 15.8532 5.25145C16.1832 5.00116 16.2479 4.53071 15.9976 4.20067L14.8024 5.10703ZM18 13.1346H16.075V14.6346H18V13.1346ZM16.075 9.55769H18V8.05769H16.075V9.55769ZM18.25 9.80769V12.8846H19.75V9.80769H18.25ZM14.35 11.3462C14.35 10.3404 15.1401 9.55769 16.075 9.55769V8.05769C14.2761 8.05769 12.85 9.548 12.85 11.3462H14.35ZM16.075 13.1346C15.1401 13.1346 14.35 12.3519 14.35 11.3462H12.85C12.85 13.1443 14.2761 14.6346 16.075 14.6346V13.1346ZM6.36284 5.27999L11.8813 1.64148L11.0556 0.389182L5.53716 4.0277L6.36284 5.27999ZM12.2181 1.69913L14.8024 5.10703L15.9976 4.20067L13.4133 0.792769L12.2181 1.69913ZM1.9 5.40385H17.2V3.90385H1.9V5.40385ZM17.2 17.75H1.9V19.25H17.2V17.75ZM1.75 17.5769V5.57692H0.25V17.5769H1.75ZM1.9 17.75C1.83494 17.75 1.75 17.6905 1.75 17.5769H0.25C0.25 18.4829 0.970942 19.25 1.9 19.25V17.75ZM17.35 17.5769C17.35 17.6905 17.2651 17.75 17.2 17.75V19.25C18.1291 19.25 18.85 18.4829 18.85 17.5769H17.35ZM17.2 5.40385C17.2651 5.40385 17.35 5.46332 17.35 5.57692H18.85C18.85 4.67092 18.1291 3.90385 17.2 3.90385V5.40385ZM1.9 3.90385C0.970944 3.90385 0.25 4.67092 0.25 5.57692H1.75C1.75 5.46332 1.83494 5.40385 1.9 5.40385V3.90385ZM17.35 14.5769V17.5769H18.85V14.5769H17.35ZM17.35 5.57692V8H18.85V5.57692H17.35ZM11.8813 1.64148C11.9912 1.56899 12.1385 1.59421 12.2181 1.69913L13.4133 0.792769C12.8563 0.0583075 11.8251 -0.118211 11.0556 0.389182L11.8813 1.64148ZM18 9.55769C18.1381 9.55769 18.25 9.66962 18.25 9.80769H19.75C19.75 8.8412 18.9665 8.05769 18 8.05769V9.55769ZM18 14.6346C18.9665 14.6346 19.75 13.8511 19.75 12.8846H18.25C18.25 13.0227 18.1381 13.1346 18 13.1346V14.6346Z" fill="black"/>
</svg>
