<svg width="16" height="21" viewBox="0 0 16 21" fill="none" xmlns="http://www.w3.org/2000/svg">
<path d="M5 3.5H3C2.46957 3.5 1.96086 3.71071 1.58579 4.08579C1.21071 4.46086 1 4.96957 1 5.5V17.5C1 18.0304 1.21071 18.5391 1.58579 18.9142C1.96086 19.2893 2.46957 19.5 3 19.5H13C13.5304 19.5 14.0391 19.2893 14.4142 18.9142C14.7893 18.5391 15 18.0304 15 17.5V5.5C15 4.96957 14.7893 4.46086 14.4142 4.08579C14.0391 3.71071 13.5304 3.5 13 3.5H11M5 3.5C5 4.60457 5.89543 5.5 7 5.5H9C10.1046 5.5 11 4.60457 11 3.5M5 3.5C5 2.39543 5.89543 1.5 7 1.5H9C10.1046 1.5 11 2.39543 11 3.5M5 15.5V10.5M8 15.5V14.5M11 15.5V12.5" stroke="black" stroke-width="1.5" stroke-linecap="round" stroke-linejoin="round"/>
</svg>
