<svg width="18" height="19" viewBox="0 0 18 19" fill="none" xmlns="http://www.w3.org/2000/svg">
<path d="M11 9.5H17M11 13.5H17M11 17.5H17M2 1.5H16C16.5523 1.5 17 1.94772 17 2.5V4.5C17 5.05228 16.5523 5.5 16 5.5H2C1.44772 5.5 1 5.05228 1 4.5V2.5C1 1.94772 1.44772 1.5 2 1.5ZM2 9.5H6C6.55228 9.5 7 9.94772 7 10.5V16.5C7 17.0523 6.55228 17.5 6 17.5H2C1.44772 17.5 1 17.0523 1 16.5V10.5C1 9.94772 1.44772 9.5 2 9.5Z" stroke="black" stroke-width="1.5" stroke-linecap="round" stroke-linejoin="round"/>
</svg>
