<svg width="16" height="21" viewBox="0 0 16 21" fill="none" xmlns="http://www.w3.org/2000/svg">
<path d="M5 12.5L11 6.5M5.50003 7H5.51003M10.5 12H10.51M15 19.5V3.5C15 2.39543 14.1046 1.5 13 1.5H3C1.89543 1.5 1 2.39543 1 3.5V19.5L4.5 17.5L8 19.5L11.5 17.5L15 19.5ZM6 7C6 7.27614 5.77614 7.5 5.5 7.5C5.22386 7.5 5 7.27614 5 7C5 6.72386 5.22386 6.5 5.5 6.5C5.77614 6.5 6 6.72386 6 7ZM11 12C11 12.2761 10.7761 12.5 10.5 12.5C10.2239 12.5 10 12.2761 10 12C10 11.7239 10.2239 11.5 10.5 11.5C10.7761 11.5 11 11.7239 11 12Z" stroke="black" stroke-width="1.5" stroke-linecap="round" stroke-linejoin="round"/>
</svg>
