<svg width="18" height="19" viewBox="0 0 18 19" fill="none" xmlns="http://www.w3.org/2000/svg">
<path d="M6.8976 7.99993C6.74842 7.99993 6.60534 8.05919 6.49986 8.16468C6.39437 8.27017 6.3351 8.41324 6.3351 8.56242C6.3351 8.71161 6.39437 8.85468 6.49986 8.96017C6.60534 9.06566 6.74842 9.12492 6.8976 9.12492H11.7726C11.9217 9.12492 12.0648 9.06566 12.1703 8.96017C12.2758 8.85468 12.335 8.71161 12.335 8.56242C12.335 8.41324 12.2758 8.27017 12.1703 8.16468C12.0648 8.05919 11.9217 7.99993 11.7726 7.99993H6.8976ZM5.11112 10.9999C4.96193 10.9999 4.81886 11.0592 4.71337 11.1647C4.60788 11.2701 4.54862 11.4132 4.54862 11.5624C4.54862 11.7116 4.60788 11.8547 4.71337 11.9601C4.81886 12.0656 4.96193 12.1249 5.11112 12.1249H9.98607C10.1353 12.1249 10.2783 12.0656 10.3838 11.9601C10.4893 11.8547 10.5486 11.7116 10.5486 11.5624C10.5486 11.4132 10.4893 11.2701 10.3838 11.1647C10.2783 11.0592 10.1353 10.9999 9.98607 10.9999H5.11112ZM3.92538 13.9999C3.7762 13.9999 3.63312 14.0591 3.52763 14.1646C3.42215 14.2701 3.36288 14.4132 3.36288 14.5624C3.36288 14.7115 3.42215 14.8546 3.52763 14.9601C3.63312 15.0656 3.7762 15.1249 3.92538 15.1249H8.80033C8.94951 15.1249 9.09259 15.0656 9.19808 14.9601C9.30356 14.8546 9.36283 14.7115 9.36283 14.5624C9.36283 14.4132 9.30356 14.2701 9.19808 14.1646C9.09259 14.0591 8.94951 13.9999 8.80033 13.9999H3.92538Z" fill="black"/>
<path d="M3.09388 0.500014H14.9063C15.3129 0.498771 15.7157 0.577983 16.0915 0.733088C16.4674 0.888192 16.8089 1.11612 17.0962 1.40376C17.3839 1.69114 17.6118 2.0326 17.7669 2.40845C17.922 2.78431 18.0012 3.18714 18 3.59373C18 4.63173 17.643 5.68922 17.154 6.71371C16.665 7.73745 16.0178 8.78144 15.39 9.79168L15.384 9.80143C14.7473 10.8274 14.1323 11.8197 13.674 12.7789C13.2135 13.7411 12.9375 14.6164 12.9375 15.4061C12.9376 15.7463 13.0257 16.0806 13.1934 16.3765C13.361 16.6725 13.6025 16.9199 13.8943 17.0947C14.186 17.2696 14.5181 17.3658 14.8581 17.3742C15.1982 17.3825 15.5346 17.3025 15.8345 17.1422C16.1345 16.9818 16.3878 16.7465 16.5697 16.4591C16.7516 16.1717 16.856 15.8421 16.8726 15.5023C16.8893 15.1626 16.8176 14.8244 16.6646 14.5206C16.5117 14.2168 16.2826 13.9578 15.9998 13.7689C15.9383 13.7278 15.8856 13.6751 15.8446 13.6136C15.8036 13.5522 15.7751 13.4832 15.7607 13.4108C15.7463 13.3383 15.7463 13.2637 15.7608 13.1913C15.7752 13.1188 15.8038 13.0499 15.8449 12.9885C15.886 12.9271 15.9387 12.8744 16.0002 12.8334C16.0616 12.7924 16.1305 12.7638 16.203 12.7495C16.2755 12.7351 16.35 12.7351 16.4225 12.7496C16.4949 12.764 16.5638 12.7926 16.6252 12.8336C17.1767 13.2027 17.5949 13.7392 17.8182 14.364C18.0415 14.9888 18.058 15.6688 17.8654 16.3037C17.6728 16.9387 17.2812 17.4949 16.7484 17.8903C16.2156 18.2857 15.5698 18.4994 14.9063 18.4998H3.37512C2.55462 18.4998 1.76772 18.1739 1.18753 17.5937C0.607349 17.0135 0.281404 16.2266 0.281404 15.4061C0.281404 13.7306 1.2249 11.9142 2.22389 10.2297C2.48488 9.79018 2.75038 9.35818 3.01138 8.93368C3.61137 7.95569 4.18662 7.01895 4.61936 6.13021H2.54263C1.92539 6.13021 1.12815 5.98546 0.617401 5.35397C0.21176 4.85767 -0.00669984 4.23468 0.000156618 3.59373C0.000156618 2.77323 0.326101 1.98633 0.906286 1.40614C1.48647 0.825959 2.27337 0.500014 3.09388 0.500014ZM11.8125 15.4061C11.8125 14.3711 12.1695 13.3166 12.6585 12.2937C13.1453 11.2752 13.7903 10.2364 14.4158 9.22918L14.4285 9.20818C15.0653 8.18294 15.6803 7.1892 16.1385 6.22921C16.599 5.26547 16.875 4.38648 16.875 3.59373C16.876 3.33492 16.8257 3.07847 16.7272 2.83916C16.6286 2.59986 16.4836 2.38243 16.3006 2.19942C16.1176 2.01641 15.9001 1.87143 15.6608 1.77284C15.4215 1.67426 15.1651 1.62401 14.9063 1.625C14.3841 1.625 13.8834 1.83242 13.5142 2.20163C13.145 2.57084 12.9375 3.07159 12.9375 3.59373C12.9375 4.24248 13.2533 4.72547 13.8128 5.10047C13.9129 5.1676 13.9889 5.26513 14.0294 5.37869C14.0699 5.49225 14.0729 5.61582 14.0378 5.73118C14.0028 5.84655 13.9316 5.9476 13.8348 6.01944C13.7379 6.09129 13.6206 6.13012 13.5 6.13021H5.8591C5.37161 7.24245 4.64111 8.43194 3.92637 9.59443C3.67587 10.0024 3.42687 10.4067 3.19138 10.8034C2.17514 12.5187 1.40639 14.0816 1.40639 15.4061C1.40639 15.9283 1.61381 16.429 1.98302 16.7982C2.35223 17.1674 2.85298 17.3749 3.37512 17.3749H12.5198C12.0616 16.8212 11.8115 16.1248 11.8125 15.4061ZM1.12515 3.59373C1.11765 3.97698 1.24739 4.34973 1.49039 4.64598C1.68089 4.88072 2.04539 5.00522 2.54188 5.00522H12.1868C11.9365 4.57732 11.8071 4.08945 11.8125 3.59373C11.8116 2.87511 12.0618 2.17874 12.5198 1.625H3.09388C2.57174 1.625 2.07098 1.83242 1.70177 2.20163C1.33257 2.57084 1.12515 3.07159 1.12515 3.59373Z" fill="black"/>
</svg>
