<svg width="18" height="24" viewBox="0 0 18 24" fill="none" xmlns="http://www.w3.org/2000/svg">
<path d="M1.59898 18.4128L0.7736 17.8482H0.773599L1.59898 18.4128ZM2.68927 14.9796L1.68927 14.9686V14.9796H2.68927ZM2.71215 12.9039L3.71215 12.9149V12.9039H2.71215ZM16.4069 18.4294L17.243 17.8809L17.243 17.8809L16.4069 18.4294ZM15.3576 14.9796L14.3576 14.968V14.9796H15.3576ZM15.3805 13.0068L16.3805 13.0184V13.0068H15.3805ZM2.42435 18.9774C3.06094 18.0467 3.68927 16.6636 3.68927 14.9796H1.68927C1.68927 16.1606 1.24661 17.1567 0.7736 17.8482L2.42435 18.9774ZM3.68921 14.9906L3.71209 12.9149L1.71221 12.8929L1.68933 14.9686L3.68921 14.9906ZM17.243 17.8809C16.7895 17.1895 16.3576 16.1814 16.3576 14.9796H14.3576C14.3576 16.6626 14.9597 18.0465 15.5707 18.9779L17.243 17.8809ZM16.3575 14.9912L16.3804 13.0184L14.3805 12.9952L14.3577 14.968L16.3575 14.9912ZM16.3805 13.0068C16.3805 8.64236 13.1722 4.92105 9 4.92105V6.92105C11.8755 6.92105 14.3805 9.54453 14.3805 13.0068H16.3805ZM16.025 20.3914C16.804 20.3914 17.2304 19.796 17.3823 19.3997C17.5411 18.9853 17.5777 18.3913 17.243 17.8809L15.5707 18.9779C15.5145 18.8922 15.5023 18.8171 15.5004 18.7788C15.4984 18.7409 15.5043 18.7111 15.5148 18.6839C15.5242 18.6592 15.5516 18.6002 15.6246 18.5366C15.7052 18.4663 15.8446 18.3914 16.025 18.3914V20.3914ZM3.71215 12.9039C3.71215 9.49848 6.17564 6.92105 9 6.92105V4.92105C4.87899 4.92105 1.71215 8.59631 1.71215 12.9039H3.71215ZM1.97591 18.3914C2.16003 18.3914 2.30096 18.4691 2.38075 18.54C2.45269 18.6039 2.47849 18.6621 2.48688 18.6847C2.49624 18.7099 2.5018 18.7382 2.49948 18.7754C2.49714 18.8129 2.48419 18.8899 2.42435 18.9774L0.773599 17.8482C0.423027 18.3607 0.457329 18.9649 0.612232 19.3816C0.75971 19.7783 1.1843 20.3914 1.97591 20.3914V18.3914ZM16.025 18.3914H1.97591V20.3914H16.025V18.3914ZM11 19.3914C11 20.5898 10.0714 21.5 9 21.5V23.5C11.2424 23.5 13 21.6267 13 19.3914H11ZM9 21.5C7.92864 21.5 7 20.5898 7 19.3914H5C5 21.6267 6.75765 23.5 9 23.5V21.5ZM10 3.71053C10 4.4756 9.46047 4.92105 9 4.92105V6.92105C10.7487 6.92105 12 5.38714 12 3.71053H10ZM9 4.92105C8.53953 4.92105 8 4.4756 8 3.71053H6C6 5.38713 7.25133 6.92105 9 6.92105V4.92105ZM8 3.71053C8 2.94545 8.53953 2.5 9 2.5V0.5C7.25133 0.5 6 2.03392 6 3.71053H8ZM9 2.5C9.46047 2.5 10 2.94546 10 3.71053H12C12 2.03392 10.7487 0.5 9 0.5V2.5Z" fill="#FF0000"/>
</svg>
