<svg width="20" height="20" viewBox="0 0 20 20" fill="none" xmlns="http://www.w3.org/2000/svg">
<path d="M1.60146 7H18.4015M1.60146 13H18.4015M9.50146 1C7.81681 3.69961 6.92367 6.81787 6.92367 10C6.92367 13.1821 7.81681 16.3004 9.50146 19M10.5015 1C12.1861 3.69961 13.0793 6.81787 13.0793 10C13.0793 13.1821 12.1861 16.3004 10.5015 19M19.0015 10C19.0015 14.9706 14.972 19 10.0015 19C5.0309 19 1.00146 14.9706 1.00146 10C1.00146 5.02944 5.0309 1 10.0015 1C14.972 1 19.0015 5.02944 19.0015 10Z" stroke="#58AF47" stroke-width="1.5" stroke-linecap="round" stroke-linejoin="round"/>
</svg>
