<svg width="6" height="24" viewBox="0 0 6 24" fill="none" xmlns="http://www.w3.org/2000/svg">
<path d="M5.83449 8.15L0.334551 8.908L0.138124 9.912L1.22029 10.128C1.92415 10.314 2.0642 10.592 1.91142 11.366L0.138124 20.52C-0.32566 22.886 0.392751 24 2.07875 24C3.38826 24 4.90511 23.336 5.59442 22.422L5.80539 21.324C5.32706 21.788 4.6232 21.974 4.15941 21.974C3.4992 21.974 3.26094 21.464 3.42827 20.566L5.83449 8.15ZM6 2.64C6 3.34017 5.74706 4.01167 5.29683 4.50676C4.8466 5.00186 4.23596 5.28 3.59923 5.28C2.96251 5.28 2.35186 5.00186 1.90163 4.50676C1.4514 4.01167 1.19846 3.34017 1.19846 2.64C1.19846 1.93983 1.4514 1.26833 1.90163 0.773238C2.35186 0.278142 2.96251 0 3.59923 0C4.23596 0 4.8466 0.278142 5.29683 0.773238C5.74706 1.26833 6 1.93983 6 2.64Z" fill="#58AF47"/>
</svg>
