<svg width="24" height="18" viewBox="0 0 24 18" fill="none" xmlns="http://www.w3.org/2000/svg">
<path d="M12.078 0.570801H12.2115C13.4445 0.575301 19.692 0.620301 21.3765 1.0733C21.8857 1.21155 22.3497 1.48103 22.7222 1.85481C23.0947 2.22859 23.3625 2.69358 23.499 3.2033C23.6505 3.7733 23.757 4.5278 23.829 5.3063L23.844 5.4623L23.877 5.8523L23.889 6.0083C23.9865 7.3793 23.9985 8.6633 24 8.9438V9.0563C23.9985 9.3473 23.985 10.7183 23.877 12.1463L23.865 12.3038L23.8515 12.4598C23.7765 13.3178 23.6655 14.1698 23.499 14.7968C23.3625 15.3065 23.0947 15.7715 22.7222 16.1453C22.3497 16.5191 21.8857 16.7885 21.3765 16.9268C19.6365 17.3948 13.023 17.4278 12.1065 17.4293H11.8935C11.43 17.4293 9.51297 17.4203 7.50296 17.3513L7.24796 17.3423L7.11747 17.3363L6.60446 17.3153C4.93946 17.2418 3.35396 17.1233 2.62346 16.9253C2.11441 16.7872 1.65049 16.5179 1.27804 16.1444C0.905594 15.7709 0.63765 15.3062 0.500965 14.7968C0.334465 14.1713 0.223465 13.3178 0.148465 12.4598L0.124465 12.1463C0.05001 11.1299 0.00898782 10.1114 0.00146484 9.0923V8.9078C0.00446484 8.5853 0.0164648 7.4708 0.0974648 6.2408L0.107965 6.0863L0.112465 6.0083L0.124465 5.8523L0.157465 5.4623L0.172465 5.3063C0.244465 4.5278 0.350965 3.7718 0.502465 3.2033C0.63892 2.69358 0.906763 2.22859 1.27923 1.85481C1.65169 1.48103 2.11573 1.21155 2.62496 1.0733C3.35546 0.878301 4.94096 0.758301 6.60596 0.683301L6.86096 0.672801L7.24796 0.659301L7.50446 0.648801C8.93203 0.602906 10.3602 0.577403 11.7885 0.572301L12.078 0.570801ZM9.60147 5.3858V12.6128L15.837 9.0008L9.60147 5.3858Z" fill="#FF0000"/>
</svg>
