<svg width="20" height="25" viewBox="0 0 20 25" fill="none" xmlns="http://www.w3.org/2000/svg">
<g clip-path="url(#clip0_1_1959)">
<path d="M16.0369 13.1841C16.0369 13.2851 15.8853 16.2665 19.1699 17.833C18.5635 19.7027 16.4412 23.8463 13.9651 23.8463C12.5502 23.8463 11.7417 22.9367 10.1247 22.9367C8.45715 22.9367 7.54758 23.8463 6.28428 23.8463C3.85875 23.9474 1.53428 19.3995 0.877369 17.5298C0.37205 16.1149 0.169922 14.7506 0.169922 13.4367C0.169922 8.93939 3.1513 6.76652 5.98109 6.71599C7.34545 6.71599 9.06354 7.67609 9.82152 7.67609C10.5289 7.67609 12.4997 6.51386 14.3188 6.66545C16.1885 6.81705 17.6034 7.5245 18.5635 8.88886C16.896 9.95003 16.0369 11.3144 16.0369 13.1841ZM13.2071 4.89684C12.1965 6.05907 10.9837 6.71599 9.66992 6.61492C9.56886 5.25056 10.0742 3.98726 10.9837 2.97662C11.7922 2.06705 13.2071 1.30907 14.4199 1.20801C14.4199 1.76386 14.5715 3.27982 13.2071 4.89684Z" fill="white"/>
</g>
<defs>
<clipPath id="clip0_1_1959">
<rect width="19" height="24" fill="white" transform="translate(0.169922 0.669922)"/>
</clipPath>
</defs>
</svg>
