<svg width="14" height="13" viewBox="0 0 14 13" fill="none" xmlns="http://www.w3.org/2000/svg">
<g clip-path="url(#clip0_1_1933)">
<path d="M0.8125 6.07533H12.0341L7.73716 1.98258C7.51216 1.76827 7.50344 1.41221 7.71775 1.18721C7.93178 0.962489 8.28784 0.953489 8.51312 1.1678L13.4204 5.84217C13.6327 6.0548 13.75 6.33717 13.75 6.63783C13.75 6.9382 13.6327 7.22086 13.4105 7.44277L8.51284 12.1076C8.404 12.2114 8.2645 12.2629 8.125 12.2629C7.9765 12.2629 7.828 12.2044 7.71747 12.0882C7.50316 11.8632 7.51188 11.5074 7.73688 11.2931L12.0518 7.20033H0.8125C0.502 7.20033 0.25 6.94833 0.25 6.63783C0.25 6.32733 0.502 6.07533 0.8125 6.07533Z" fill="white"/>
</g>
<defs>
<clipPath id="clip0_1_1933">
<rect width="14" height="12" fill="white" transform="translate(0 0.780273)"/>
</clipPath>
</defs>
</svg>
