<svg width="15" height="14" viewBox="0 0 15 14" fill="none" xmlns="http://www.w3.org/2000/svg">
<path d="M7.4769 4.00586C9.32261 4.00586 10.846 5.5293 10.846 7.375C10.846 9.25 9.32261 10.7441 7.4769 10.7441C5.6019 10.7441 4.10776 9.25 4.10776 7.375C4.10776 5.5293 5.6019 4.00586 7.4769 4.00586ZM7.4769 9.57227C8.67807 9.57227 9.64487 8.60547 9.64487 7.375C9.64487 6.17383 8.67807 5.20703 7.4769 5.20703C6.24643 5.20703 5.27964 6.17383 5.27964 7.375C5.27964 8.60547 6.27573 9.57227 7.4769 9.57227ZM11.7542 3.88867C11.7542 4.32812 11.4027 4.67969 10.9632 4.67969C10.5238 4.67969 10.1722 4.32812 10.1722 3.88867C10.1722 3.44922 10.5238 3.09766 10.9632 3.09766C11.4027 3.09766 11.7542 3.44922 11.7542 3.88867ZM13.9808 4.67969C14.0394 5.76367 14.0394 9.01562 13.9808 10.0996C13.9222 11.1543 13.6878 12.0625 12.9261 12.8535C12.1644 13.6152 11.2269 13.8496 10.1722 13.9082C9.08823 13.9668 5.83628 13.9668 4.75229 13.9082C3.69761 13.8496 2.7894 13.6152 1.99839 12.8535C1.23667 12.0625 1.00229 11.1543 0.943699 10.0996C0.885106 9.01562 0.885106 5.76367 0.943699 4.67969C1.00229 3.625 1.23667 2.6875 1.99839 1.92578C2.7894 1.16406 3.69761 0.929688 4.75229 0.871094C5.83628 0.8125 9.08823 0.8125 10.1722 0.871094C11.2269 0.929688 12.1644 1.16406 12.9261 1.92578C13.6878 2.6875 13.9222 3.625 13.9808 4.67969ZM12.5746 11.2422C12.9261 10.3926 12.8382 8.3418 12.8382 7.375C12.8382 6.4375 12.9261 4.38672 12.5746 3.50781C12.3402 2.95117 11.9007 2.48242 11.3441 2.27734C10.4652 1.92578 8.4144 2.01367 7.4769 2.01367C6.51011 2.01367 4.45932 1.92578 3.60971 2.27734C3.02378 2.51172 2.58432 2.95117 2.34995 3.50781C1.99839 4.38672 2.08628 6.4375 2.08628 7.375C2.08628 8.3418 1.99839 10.3926 2.34995 11.2422C2.58432 11.8281 3.02378 12.2676 3.60971 12.502C4.45932 12.8535 6.51011 12.7656 7.4769 12.7656C8.4144 12.7656 10.4652 12.8535 11.3441 12.502C11.9007 12.2676 12.3695 11.8281 12.5746 11.2422Z" fill="white"/>
<a href="https://www.figma.com/design/fHgyaxIb9WlIf3oWFnKkOg?node-id=2-2">
<rect fill="black" fill-opacity="0" x="-0.282375" y="-1.125" width="13.125" height="17.25"/>
</a>
</svg>
