<svg width="15" height="14" viewBox="0 0 15 14" fill="none" xmlns="http://www.w3.org/2000/svg">
<path d="M3.86484 14H1.14023V5.24023H3.86484V14ZM2.48788 4.06836C1.63827 4.06836 0.935148 3.33594 0.935148 2.45703C0.935148 1.60742 1.63827 0.904297 2.48788 0.904297C3.36679 0.904297 4.06991 1.60742 4.06991 2.45703C4.06991 3.33594 3.36679 4.06836 2.48788 4.06836ZM14.0309 14H11.3355V9.75195C11.3355 8.72656 11.3062 7.4375 9.89999 7.4375C8.49374 7.4375 8.28866 8.52148 8.28866 9.66406V14H5.56405V5.24023H8.17148V6.44141H8.20077C8.58163 5.76758 9.46054 5.03516 10.7789 5.03516C13.5328 5.03516 14.0601 6.85156 14.0601 9.19531V14H14.0309Z" fill="white"/>
<a href="https://www.figma.com/design/fHgyaxIb9WlIf3oWFnKkOg?node-id=2-2">
<rect fill="black" fill-opacity="0" x="0.178312" y="-1.125" width="13.125" height="17.25"/>
</a>
</svg>
