<svg width="16" height="13" viewBox="0 0 16 13" fill="none" xmlns="http://www.w3.org/2000/svg">
<path d="M14.3878 3.32812C14.3878 3.47461 14.3878 3.5918 14.3878 3.73828C14.3878 7.81055 11.3117 12.4688 5.65737 12.4688C3.89955 12.4688 2.28823 11.9707 0.94057 11.0918C1.17495 11.1211 1.40932 11.1504 1.67299 11.1504C3.10854 11.1504 4.4269 10.6523 5.48159 9.83203C4.13393 9.80273 2.99135 8.92383 2.61049 7.69336C2.81557 7.72266 2.99135 7.75195 3.19643 7.75195C3.4601 7.75195 3.75307 7.69336 3.98745 7.63477C2.5812 7.3418 1.52651 6.11133 1.52651 4.61719V4.58789C1.93666 4.82227 2.43471 4.93945 2.93276 4.96875C2.08315 4.41211 1.5558 3.47461 1.5558 2.41992C1.5558 1.83398 1.70229 1.30664 1.96596 0.867188C3.4894 2.71289 5.77455 3.94336 8.32338 4.08984C8.26479 3.85547 8.23549 3.62109 8.23549 3.38672C8.23549 1.6875 9.61245 0.310547 11.3117 0.310547C12.1906 0.310547 12.9816 0.662109 13.5675 1.27734C14.2414 1.13086 14.9152 0.867188 15.5011 0.515625C15.2667 1.24805 14.798 1.83398 14.1535 2.21484C14.7687 2.15625 15.3839 1.98047 15.9113 1.74609C15.5011 2.36133 14.9738 2.88867 14.3878 3.32812Z" fill="white"/>
<a href="https://www.figma.com/design/fHgyaxIb9WlIf3oWFnKkOg?node-id=2-2">
<rect fill="black" fill-opacity="0" x="-0.744" y="-1.125" width="15" height="17.25"/>
</a>
</svg>
