<svg width="200" height="35" viewBox="0 0 200 35" fill="none" xmlns="http://www.w3.org/2000/svg">
<path d="M12.9531 26.5H6.75V6.875H0.625V4H19.0781V6.875H12.9531V26.5ZM38.3125 26.5H33.0312V24.3438C32.4062 25.1979 31.651 25.8333 30.7656 26.25C29.8906 26.6562 28.9271 26.8594 27.875 26.8594C26.5 26.8594 25.2708 26.6146 24.1875 26.125C23.1042 25.6354 22.1875 24.9688 21.4375 24.125C20.6875 23.2708 20.1146 22.2708 19.7188 21.125C19.3229 19.9792 19.125 18.75 19.125 17.4375C19.125 16.125 19.3229 14.8958 19.7188 13.75C20.1146 12.6042 20.6875 11.6094 21.4375 10.7656C22.1875 9.91146 23.1042 9.23958 24.1875 8.75C25.2708 8.26042 26.5 8.01562 27.875 8.01562C28.5729 8.01562 29.2344 8.11979 29.8594 8.32812C30.4948 8.53646 31.0729 8.83333 31.5938 9.21875C32.125 9.59375 32.5885 10.0521 32.9844 10.5938C33.3906 11.125 33.7083 11.7188 33.9375 12.375L36.2812 8.45312H38.3125V26.5ZM33 17.4375C33 16.9688 32.974 16.474 32.9219 15.9531C32.8802 15.4323 32.8021 14.9167 32.6875 14.4062C32.5729 13.8958 32.4115 13.4115 32.2031 12.9531C32.0052 12.4844 31.7448 12.0729 31.4219 11.7188C31.1094 11.3542 30.7292 11.0677 30.2812 10.8594C29.8333 10.651 29.3125 10.5469 28.7188 10.5469C28.125 10.5469 27.6094 10.6562 27.1719 10.875C26.7344 11.0833 26.3594 11.3698 26.0469 11.7344C25.7344 12.0885 25.474 12.5 25.2656 12.9688C25.0677 13.4375 24.9115 13.9271 24.7969 14.4375C24.6823 14.9479 24.599 15.4635 24.5469 15.9844C24.5052 16.4948 24.4844 16.9792 24.4844 17.4375C24.4844 17.8958 24.5052 18.3854 24.5469 18.9062C24.599 19.4271 24.6823 19.9427 24.7969 20.4531C24.9115 20.9635 25.0677 21.4531 25.2656 21.9219C25.474 22.3906 25.7344 22.8073 26.0469 23.1719C26.3594 23.526 26.7344 23.8125 27.1719 24.0312C27.6094 24.2396 28.125 24.3438 28.7188 24.3438C29.2604 24.3438 29.7396 24.2344 30.1562 24.0156C30.5833 23.7865 30.9531 23.4844 31.2656 23.1094C31.5885 22.7344 31.8594 22.3073 32.0781 21.8281C32.2969 21.349 32.474 20.8542 32.6094 20.3438C32.7448 19.8333 32.8438 19.3281 32.9062 18.8281C32.9688 18.3177 33 17.8542 33 17.4375ZM48.0156 26.5H42.7344V0.140625H44.7656L48.0156 5.625V26.5ZM56.7656 17.9375C57.4115 18.0833 58.0573 18.1979 58.7031 18.2812C59.349 18.3646 60 18.4062 60.6562 18.4062C61.3438 18.4062 61.9792 18.3438 62.5625 18.2188C63.1562 18.0833 63.6667 17.8646 64.0938 17.5625C64.5312 17.25 64.875 16.8385 65.125 16.3281C65.375 15.8177 65.5 15.1823 65.5 14.4219C65.5 13.8073 65.4167 13.2448 65.25 12.7344C65.0833 12.224 64.8333 11.7865 64.5 11.4219C64.1771 11.0573 63.776 10.776 63.2969 10.5781C62.8177 10.3698 62.2604 10.2656 61.625 10.2656C61.0312 10.2656 60.4948 10.375 60.0156 10.5938C59.5469 10.8125 59.1302 11.1094 58.7656 11.4844C58.4115 11.849 58.1042 12.276 57.8438 12.7656C57.5938 13.2552 57.3854 13.7656 57.2188 14.2969C57.0521 14.8281 56.9323 15.3646 56.8594 15.9062C56.7865 16.4479 56.75 16.9583 56.75 17.4375C56.75 17.5208 56.75 17.6042 56.75 17.6875C56.75 17.7708 56.7552 17.8542 56.7656 17.9375ZM69.7812 14.375C69.7812 15.1146 69.6615 15.776 69.4219 16.3594C69.1823 16.9323 68.8542 17.4375 68.4375 17.875C68.0312 18.3125 67.5573 18.6823 67.0156 18.9844C66.474 19.2865 65.8958 19.5365 65.2812 19.7344C64.6667 19.9219 64.0312 20.0573 63.375 20.1406C62.7292 20.224 62.099 20.2656 61.4844 20.2656C60.7031 20.2656 59.9323 20.2135 59.1719 20.1094C58.4115 19.9948 57.6615 19.8177 56.9219 19.5781C57.0365 20.2656 57.2188 20.9219 57.4688 21.5469C57.7188 22.1615 58.0521 22.7031 58.4688 23.1719C58.8854 23.6302 59.3958 23.9948 60 24.2656C60.6146 24.5365 61.3385 24.6719 62.1719 24.6719C62.724 24.6719 63.25 24.5885 63.75 24.4219C64.25 24.2552 64.7083 24.0208 65.125 23.7188C65.5417 23.4167 65.9062 23.0573 66.2188 22.6406C66.5417 22.224 66.8021 21.7604 67 21.25L69.2812 22.0938C68.9375 22.9167 68.4635 23.6302 67.8594 24.2344C67.2656 24.8281 66.5885 25.3229 65.8281 25.7188C65.0781 26.1042 64.276 26.3906 63.4219 26.5781C62.5781 26.7656 61.7396 26.8594 60.9062 26.8594C59.5312 26.8594 58.2604 26.6302 57.0938 26.1719C55.9271 25.7031 54.9219 25.0521 54.0781 24.2188C53.2344 23.3854 52.5729 22.3906 52.0938 21.2344C51.6146 20.0781 51.375 18.8125 51.375 17.4375C51.375 16.0625 51.6146 14.7969 52.0938 13.6406C52.5729 12.4844 53.2344 11.4896 54.0781 10.6562C54.9219 9.82292 55.9271 9.17708 57.0938 8.71875C58.2604 8.25 59.5312 8.01562 60.9062 8.01562C61.5729 8.01562 62.2552 8.0625 62.9531 8.15625C63.651 8.25 64.3281 8.40104 64.9844 8.60938C65.6406 8.80729 66.2604 9.06771 66.8438 9.39062C67.4271 9.71354 67.9323 10.1146 68.3594 10.5938C68.7969 11.0625 69.1406 11.6094 69.3906 12.2344C69.651 12.8594 69.7812 13.5729 69.7812 14.375ZM91.5312 16.1562C91.5312 17.375 91.3802 18.6458 91.0781 19.9688C90.7865 21.2917 90.375 22.5885 89.8438 23.8594C89.3125 25.1302 88.6771 26.3229 87.9375 27.4375C87.1979 28.5625 86.3854 29.5312 85.5 30.3438L83.5156 29.2656C83.7969 28.7448 84.0625 28.1615 84.3125 27.5156C84.5625 26.8698 84.7865 26.1875 84.9844 25.4688C85.1927 24.7396 85.375 23.9896 85.5312 23.2188C85.6979 22.4479 85.8333 21.6875 85.9375 20.9375C86.0521 20.1771 86.1354 19.4427 86.1875 18.7344C86.25 18.0156 86.2812 17.349 86.2812 16.7344C86.2812 16.3281 86.2656 15.8958 86.2344 15.4375C86.2031 14.9688 86.1354 14.5052 86.0312 14.0469C85.9375 13.5781 85.8073 13.1302 85.6406 12.7031C85.474 12.276 85.25 11.901 84.9688 11.5781C84.6979 11.2552 84.3646 10.9948 83.9688 10.7969C83.5833 10.599 83.125 10.5 82.5938 10.5C82.0729 10.5 81.6094 10.6198 81.2031 10.8594C80.7969 11.0885 80.4375 11.3958 80.125 11.7812C79.8125 12.1562 79.5417 12.5885 79.3125 13.0781C79.0938 13.5677 78.9115 14.0729 78.7656 14.5938C78.6302 15.1042 78.5312 15.6094 78.4688 16.1094C78.4062 16.6094 78.375 17.0573 78.375 17.4531V26.5H73.0781V8.45312H75.1094L77.5312 12.6562C77.8229 11.9583 78.1875 11.3229 78.625 10.75C79.0625 10.1771 79.5573 9.6875 80.1094 9.28125C80.6615 8.875 81.2708 8.5625 81.9375 8.34375C82.6146 8.125 83.3438 8.01562 84.125 8.01562C85.375 8.01562 86.4635 8.21875 87.3906 8.625C88.3177 9.03125 89.0885 9.59896 89.7031 10.3281C90.3177 11.0469 90.776 11.9062 91.0781 12.9062C91.3802 13.8958 91.5312 14.9792 91.5312 16.1562ZM101.625 26.5H96.3281V10.5469H93.0469V8.45312H96.3281V1.8125H101.625V8.45312H107.094V10.5469H101.625V26.5ZM124.953 20.7344C124.953 21.526 124.839 22.2292 124.609 22.8438C124.38 23.4583 124.068 23.9948 123.672 24.4531C123.276 24.901 122.807 25.2812 122.266 25.5938C121.724 25.8958 121.141 26.1406 120.516 26.3281C119.901 26.5156 119.255 26.651 118.578 26.7344C117.901 26.8177 117.229 26.8594 116.562 26.8594C115.667 26.8594 114.875 26.8021 114.188 26.6875C113.5 26.5729 112.844 26.3906 112.219 26.1406C111.594 25.8802 110.969 25.5469 110.344 25.1406C109.729 24.7344 109.042 24.2396 108.281 23.6562L111.359 21.1406C111.641 21.6719 112.01 22.1562 112.469 22.5938C112.938 23.0208 113.422 23.3906 113.922 23.7031C114.422 24.0156 114.906 24.2552 115.375 24.4219C115.844 24.5885 116.224 24.6719 116.516 24.6719C116.755 24.6719 117.026 24.6667 117.328 24.6562C117.63 24.6354 117.938 24.6042 118.25 24.5625C118.562 24.5104 118.87 24.4375 119.172 24.3438C119.474 24.25 119.74 24.125 119.969 23.9688C120.208 23.8021 120.396 23.599 120.531 23.3594C120.677 23.1094 120.75 22.8125 120.75 22.4688C120.75 22.1146 120.656 21.8073 120.469 21.5469C120.292 21.276 120.057 21.0417 119.766 20.8438C119.474 20.6458 119.141 20.4792 118.766 20.3438C118.391 20.2083 118.01 20.0885 117.625 19.9844C117.25 19.8802 116.885 19.7917 116.531 19.7188C116.177 19.6354 115.87 19.5573 115.609 19.4844C115.13 19.349 114.625 19.2135 114.094 19.0781C113.562 18.9323 113.036 18.7708 112.516 18.5938C111.995 18.4062 111.495 18.1875 111.016 17.9375C110.547 17.6875 110.13 17.3906 109.766 17.0469C109.411 16.6927 109.125 16.2812 108.906 15.8125C108.698 15.3333 108.594 14.776 108.594 14.1406C108.594 12.974 108.823 12 109.281 11.2188C109.75 10.4271 110.365 9.79688 111.125 9.32812C111.885 8.84896 112.75 8.51042 113.719 8.3125C114.688 8.11458 115.672 8.01562 116.672 8.01562C117.359 8.01562 118.083 8.08854 118.844 8.23438C119.604 8.36979 120.344 8.57812 121.062 8.85938C121.781 9.13021 122.453 9.46354 123.078 9.85938C123.703 10.2552 124.224 10.7083 124.641 11.2188L121.562 13.75C121.333 13.125 121.031 12.5885 120.656 12.1406C120.292 11.6927 119.891 11.3281 119.453 11.0469C119.026 10.7552 118.583 10.5417 118.125 10.4062C117.677 10.2708 117.26 10.2031 116.875 10.2031C116.5 10.2031 116.078 10.2188 115.609 10.25C115.141 10.2812 114.698 10.3698 114.281 10.5156C113.875 10.6615 113.526 10.8854 113.234 11.1875C112.953 11.4792 112.812 11.8854 112.812 12.4062C112.812 12.7812 112.896 13.1042 113.062 13.375C113.24 13.6354 113.469 13.8646 113.75 14.0625C114.031 14.25 114.349 14.4115 114.703 14.5469C115.068 14.6719 115.438 14.7865 115.812 14.8906C116.188 14.9844 116.552 15.0677 116.906 15.1406C117.26 15.2135 117.578 15.2917 117.859 15.375C118.339 15.5104 118.844 15.651 119.375 15.7969C119.917 15.9323 120.448 16.0938 120.969 16.2812C121.49 16.4583 121.99 16.6719 122.469 16.9219C122.958 17.1615 123.385 17.4583 123.75 17.8125C124.115 18.1667 124.406 18.5833 124.625 19.0625C124.844 19.5312 124.953 20.0885 124.953 20.7344ZM147.484 17.4375C147.484 18.75 147.286 19.9792 146.891 21.125C146.495 22.2708 145.922 23.2708 145.172 24.125C144.422 24.9688 143.505 25.6354 142.422 26.125C141.339 26.6146 140.109 26.8594 138.734 26.8594C137.682 26.8594 136.714 26.6562 135.828 26.25C134.953 25.8333 134.203 25.1979 133.578 24.3438V34.8281H128.297V8.45312H130.328L132.672 12.375C132.901 11.7188 133.214 11.125 133.609 10.5938C134.016 10.0521 134.479 9.59375 135 9.21875C135.531 8.83333 136.109 8.53646 136.734 8.32812C137.37 8.11979 138.036 8.01562 138.734 8.01562C140.109 8.01562 141.339 8.26042 142.422 8.75C143.505 9.23958 144.422 9.91146 145.172 10.7656C145.922 11.6094 146.495 12.6042 146.891 13.75C147.286 14.8958 147.484 16.125 147.484 17.4375ZM142.125 17.4375C142.125 16.9792 142.099 16.4948 142.047 15.9844C142.005 15.4635 141.927 14.9479 141.812 14.4375C141.698 13.9271 141.536 13.4375 141.328 12.9688C141.13 12.5 140.875 12.0885 140.562 11.7344C140.25 11.3698 139.87 11.0833 139.422 10.875C138.984 10.6562 138.474 10.5469 137.891 10.5469C137.286 10.5469 136.76 10.651 136.312 10.8594C135.875 11.0677 135.495 11.3542 135.172 11.7188C134.859 12.0729 134.599 12.4844 134.391 12.9531C134.193 13.4115 134.036 13.8958 133.922 14.4062C133.807 14.9167 133.724 15.4323 133.672 15.9531C133.63 16.474 133.609 16.9688 133.609 17.4375C133.609 17.8542 133.641 18.3177 133.703 18.8281C133.766 19.3281 133.865 19.8333 134 20.3438C134.135 20.8542 134.312 21.349 134.531 21.8281C134.75 22.3073 135.016 22.7344 135.328 23.1094C135.651 23.4844 136.021 23.7865 136.438 24.0156C136.865 24.2344 137.349 24.3438 137.891 24.3438C138.484 24.3438 139 24.2396 139.438 24.0312C139.875 23.8125 140.25 23.526 140.562 23.1719C140.875 22.8073 141.13 22.3906 141.328 21.9219C141.536 21.4531 141.698 20.9635 141.812 20.4531C141.927 19.9427 142.005 19.4271 142.047 18.9062C142.099 18.3854 142.125 17.8958 142.125 17.4375ZM156.438 4.09375C156.438 4.48958 156.359 4.86458 156.203 5.21875C156.057 5.57292 155.854 5.88021 155.594 6.14062C155.333 6.40104 155.026 6.60938 154.672 6.76562C154.318 6.91146 153.943 6.98438 153.547 6.98438C153.151 6.98438 152.776 6.91146 152.422 6.76562C152.078 6.60938 151.776 6.40104 151.516 6.14062C151.255 5.88021 151.047 5.57292 150.891 5.21875C150.745 4.86458 150.672 4.48958 150.672 4.09375C150.672 3.69792 150.745 3.32812 150.891 2.98438C151.047 2.63021 151.255 2.32292 151.516 2.0625C151.776 1.80208 152.078 1.59896 152.422 1.45312C152.776 1.29688 153.151 1.21875 153.547 1.21875C153.943 1.21875 154.318 1.29688 154.672 1.45312C155.026 1.59896 155.333 1.80208 155.594 2.0625C155.854 2.32292 156.057 2.63021 156.203 2.98438C156.359 3.32812 156.438 3.69792 156.438 4.09375ZM156.203 26.5H150.906V8.46875H156.203V26.5ZM179.094 16.1562C179.094 17.375 178.943 18.6458 178.641 19.9688C178.349 21.2917 177.938 22.5885 177.406 23.8594C176.875 25.1302 176.24 26.3229 175.5 27.4375C174.76 28.5625 173.948 29.5312 173.062 30.3438L171.078 29.2656C171.359 28.7448 171.625 28.1615 171.875 27.5156C172.125 26.8698 172.349 26.1875 172.547 25.4688C172.755 24.7396 172.938 23.9896 173.094 23.2188C173.26 22.4479 173.396 21.6875 173.5 20.9375C173.615 20.1771 173.698 19.4427 173.75 18.7344C173.812 18.0156 173.844 17.349 173.844 16.7344C173.844 16.3281 173.828 15.8958 173.797 15.4375C173.766 14.9688 173.698 14.5052 173.594 14.0469C173.5 13.5781 173.37 13.1302 173.203 12.7031C173.036 12.276 172.812 11.901 172.531 11.5781C172.26 11.2552 171.927 10.9948 171.531 10.7969C171.146 10.599 170.688 10.5 170.156 10.5C169.635 10.5 169.172 10.6198 168.766 10.8594C168.359 11.0885 168 11.3958 167.688 11.7812C167.375 12.1562 167.104 12.5885 166.875 13.0781C166.656 13.5677 166.474 14.0729 166.328 14.5938C166.193 15.1042 166.094 15.6094 166.031 16.1094C165.969 16.6094 165.938 17.0573 165.938 17.4531V26.5H160.641V8.45312H162.672L165.094 12.6562C165.385 11.9583 165.75 11.3229 166.188 10.75C166.625 10.1771 167.12 9.6875 167.672 9.28125C168.224 8.875 168.833 8.5625 169.5 8.34375C170.177 8.125 170.906 8.01562 171.688 8.01562C172.938 8.01562 174.026 8.21875 174.953 8.625C175.88 9.03125 176.651 9.59896 177.266 10.3281C177.88 11.0469 178.339 11.9062 178.641 12.9062C178.943 13.8958 179.094 14.9792 179.094 16.1562ZM186.922 17.9375C187.568 18.0833 188.214 18.1979 188.859 18.2812C189.505 18.3646 190.156 18.4062 190.812 18.4062C191.5 18.4062 192.135 18.3438 192.719 18.2188C193.312 18.0833 193.823 17.8646 194.25 17.5625C194.688 17.25 195.031 16.8385 195.281 16.3281C195.531 15.8177 195.656 15.1823 195.656 14.4219C195.656 13.8073 195.573 13.2448 195.406 12.7344C195.24 12.224 194.99 11.7865 194.656 11.4219C194.333 11.0573 193.932 10.776 193.453 10.5781C192.974 10.3698 192.417 10.2656 191.781 10.2656C191.188 10.2656 190.651 10.375 190.172 10.5938C189.703 10.8125 189.286 11.1094 188.922 11.4844C188.568 11.849 188.26 12.276 188 12.7656C187.75 13.2552 187.542 13.7656 187.375 14.2969C187.208 14.8281 187.089 15.3646 187.016 15.9062C186.943 16.4479 186.906 16.9583 186.906 17.4375C186.906 17.5208 186.906 17.6042 186.906 17.6875C186.906 17.7708 186.911 17.8542 186.922 17.9375ZM199.938 14.375C199.938 15.1146 199.818 15.776 199.578 16.3594C199.339 16.9323 199.01 17.4375 198.594 17.875C198.188 18.3125 197.714 18.6823 197.172 18.9844C196.63 19.2865 196.052 19.5365 195.438 19.7344C194.823 19.9219 194.188 20.0573 193.531 20.1406C192.885 20.224 192.255 20.2656 191.641 20.2656C190.859 20.2656 190.089 20.2135 189.328 20.1094C188.568 19.9948 187.818 19.8177 187.078 19.5781C187.193 20.2656 187.375 20.9219 187.625 21.5469C187.875 22.1615 188.208 22.7031 188.625 23.1719C189.042 23.6302 189.552 23.9948 190.156 24.2656C190.771 24.5365 191.495 24.6719 192.328 24.6719C192.88 24.6719 193.406 24.5885 193.906 24.4219C194.406 24.2552 194.865 24.0208 195.281 23.7188C195.698 23.4167 196.062 23.0573 196.375 22.6406C196.698 22.224 196.958 21.7604 197.156 21.25L199.438 22.0938C199.094 22.9167 198.62 23.6302 198.016 24.2344C197.422 24.8281 196.745 25.3229 195.984 25.7188C195.234 26.1042 194.432 26.3906 193.578 26.5781C192.734 26.7656 191.896 26.8594 191.062 26.8594C189.688 26.8594 188.417 26.6302 187.25 26.1719C186.083 25.7031 185.078 25.0521 184.234 24.2188C183.391 23.3854 182.729 22.3906 182.25 21.2344C181.771 20.0781 181.531 18.8125 181.531 17.4375C181.531 16.0625 181.771 14.7969 182.25 13.6406C182.729 12.4844 183.391 11.4896 184.234 10.6562C185.078 9.82292 186.083 9.17708 187.25 8.71875C188.417 8.25 189.688 8.01562 191.062 8.01562C191.729 8.01562 192.411 8.0625 193.109 8.15625C193.807 8.25 194.484 8.40104 195.141 8.60938C195.797 8.80729 196.417 9.06771 197 9.39062C197.583 9.71354 198.089 10.1146 198.516 10.5938C198.953 11.0625 199.297 11.6094 199.547 12.2344C199.807 12.8594 199.938 13.5729 199.938 14.375Z" fill="white"/>
</svg>
