<svg width="13" height="13" viewBox="0 0 13 13" fill="none" xmlns="http://www.w3.org/2000/svg">
<path d="M12.6662 5.14131C12.6662 5.25295 12.6002 5.37474 12.4683 5.50667L9.70529 8.20118L10.3599 12.007C10.365 12.0425 10.3675 12.0932 10.3675 12.1592C10.3675 12.2658 10.3409 12.3558 10.2876 12.4294C10.2343 12.503 10.1569 12.5398 10.0554 12.5398C9.95901 12.5398 9.85752 12.5093 9.75096 12.4485L6.33335 10.6521L2.91573 12.4485C2.8041 12.5093 2.70261 12.5398 2.61127 12.5398C2.50471 12.5398 2.42479 12.503 2.3715 12.4294C2.31822 12.3558 2.29158 12.2658 2.29158 12.1592C2.29158 12.1288 2.29666 12.078 2.30681 12.007L2.9614 8.20118L0.190778 5.50667C0.0639183 5.36966 0.000488281 5.24788 0.000488281 5.14131C0.000488281 4.95356 0.142572 4.83685 0.426738 4.79118L4.24777 4.23553L5.96038 0.77225C6.05679 0.564199 6.18111 0.460175 6.33335 0.460175C6.48558 0.460175 6.6099 0.564199 6.70631 0.77225L8.41893 4.23553L12.24 4.79118C12.5241 4.83685 12.6662 4.95356 12.6662 5.14131Z" fill="#0784E2"/>
</svg>
