<svg width="14" height="14" viewBox="0 0 14 14" fill="none" xmlns="http://www.w3.org/2000/svg">
<path d="M9.01283 9.21151C9.40579 9.3425 9.83053 9.13013 9.96151 8.73717C10.0925 8.34421 9.88013 7.91947 9.48717 7.78849L9.01283 9.21151ZM7 7.75H6.25C6.25 8.07282 6.45657 8.35943 6.76283 8.46151L7 7.75ZM7.75 4.61391C7.75 4.1997 7.41421 3.86391 7 3.86391C6.58579 3.86391 6.25 4.1997 6.25 4.61391H7.75ZM9.48717 7.78849L7.23717 7.03849L6.76283 8.46151L9.01283 9.21151L9.48717 7.78849ZM7.75 7.75V4.61391H6.25V7.75H7.75ZM12.25 7C12.25 9.8995 9.8995 12.25 7 12.25V13.75C10.7279 13.75 13.75 10.7279 13.75 7H12.25ZM7 12.25C4.1005 12.25 1.75 9.8995 1.75 7H0.25C0.25 10.7279 3.27208 13.75 7 13.75V12.25ZM1.75 7C1.75 4.1005 4.1005 1.75 7 1.75V0.25C3.27208 0.25 0.25 3.27208 0.25 7H1.75ZM7 1.75C9.8995 1.75 12.25 4.1005 12.25 7H13.75C13.75 3.27208 10.7279 0.25 7 0.25V1.75Z" fill="#0784E2"/>
</svg>
