<svg width="185" height="51" viewBox="0 0 185 51" fill="none" xmlns="http://www.w3.org/2000/svg">
<path fill-rule="evenodd" clip-rule="evenodd" d="M7.688 20.6659C28.3939 4.97926 51.3758 1.60551 78.5069 10.2396C84.4585 12.1285 86.7132 13.1233 95.9641 17.8907C124.109 32.4114 148.089 38.209 168.532 35.4229C172.667 34.85 172.523 34.7006 169.927 37.0073C161.654 44.3326 158.709 48.1677 159.989 49.973C161.109 51.5887 161.491 51.3702 168.396 44.9257C172.995 40.6158 182.075 33.5532 183.45 33.2167C185.286 32.7568 184.84 28.0778 182.07 28.3476C176.997 28.838 166.409 23.5145 161.949 18.2139C160.308 16.2709 159.413 15.6578 158.833 16.1091C156.955 17.5694 162.956 24.3154 169.445 28.0899C170.979 28.9908 172.142 29.7874 172.006 29.8936C171.025 30.6301 157.708 31.6952 152.159 31.5094C138.077 31.0229 114.141 23.3591 93.6695 12.765C61.5356 -3.88838 30.7948 -3.09227 6.46589 15.046C0.762958 19.2986 -0.223347 20.7205 1.19218 22.7084C2.37339 24.4859 2.84436 24.3287 7.688 20.6659Z" fill="#212222"/>
</svg>
