<svg width="281" height="47" viewBox="0 0 281 47" fill="none" xmlns="http://www.w3.org/2000/svg">
<path d="M0.0340909 2.09091H9.13636L18.75 25.5455H19.1591L28.7727 2.09091H37.875V37H30.7159V14.2784H30.4261L21.392 36.8295H16.517L7.48295 14.1932H7.19318V37H0.0340909V2.09091ZM48.3026 46.8182C47.3821 46.8182 46.5185 46.7443 45.7116 46.5966C44.9162 46.4602 44.2571 46.2841 43.7344 46.0682L45.3707 40.6477C46.223 40.9091 46.9901 41.0511 47.6719 41.0739C48.3651 41.0966 48.9616 40.9375 49.4616 40.5966C49.973 40.2557 50.3878 39.6761 50.706 38.858L51.1321 37.75L41.7401 10.8182H49.3764L54.7969 30.0455H55.0696L60.5412 10.8182H68.2287L58.0526 39.8295C57.5639 41.2386 56.8991 42.4659 56.0582 43.5114C55.2287 44.5682 54.1776 45.3807 52.9048 45.9489C51.6321 46.5284 50.098 46.8182 48.3026 46.8182ZM83.1903 37V2.09091H96.9631C99.6108 2.09091 101.866 2.59659 103.73 3.60795C105.594 4.60795 107.014 6 107.991 7.78409C108.98 9.55682 109.474 11.6023 109.474 13.9205C109.474 16.2386 108.974 18.2841 107.974 20.0568C106.974 21.8295 105.526 23.2102 103.628 24.1989C101.741 25.1875 99.4574 25.6818 96.7756 25.6818H87.9972V19.767H95.5824C97.0028 19.767 98.1733 19.5227 99.0938 19.0341C100.026 18.5341 100.719 17.8466 101.173 16.9716C101.639 16.0852 101.872 15.0682 101.872 13.9205C101.872 12.7614 101.639 11.75 101.173 10.8864C100.719 10.0114 100.026 9.33523 99.0938 8.85795C98.1619 8.36932 96.9801 8.125 95.5483 8.125H90.571V37H83.1903ZM125.54 37.5114C122.892 37.5114 120.602 36.9489 118.67 35.8239C116.75 34.6875 115.267 33.108 114.222 31.0852C113.176 29.0511 112.653 26.6932 112.653 24.0114C112.653 21.3068 113.176 18.9432 114.222 16.9205C115.267 14.8864 116.75 13.3068 118.67 12.1818C120.602 11.0455 122.892 10.4773 125.54 10.4773C128.188 10.4773 130.472 11.0455 132.392 12.1818C134.324 13.3068 135.812 14.8864 136.858 16.9205C137.903 18.9432 138.426 21.3068 138.426 24.0114C138.426 26.6932 137.903 29.0511 136.858 31.0852C135.812 33.108 134.324 34.6875 132.392 35.8239C130.472 36.9489 128.188 37.5114 125.54 37.5114ZM125.574 31.8864C126.778 31.8864 127.784 31.5455 128.591 30.8636C129.398 30.1705 130.006 29.2273 130.415 28.0341C130.835 26.8409 131.045 25.483 131.045 23.9602C131.045 22.4375 130.835 21.0795 130.415 19.8864C130.006 18.6932 129.398 17.75 128.591 17.0568C127.784 16.3636 126.778 16.017 125.574 16.017C124.358 16.017 123.335 16.3636 122.506 17.0568C121.688 17.75 121.068 18.6932 120.648 19.8864C120.239 21.0795 120.034 22.4375 120.034 23.9602C120.034 25.483 120.239 26.8409 120.648 28.0341C121.068 29.2273 121.688 30.1705 122.506 30.8636C123.335 31.5455 124.358 31.8864 125.574 31.8864ZM143.148 37V10.8182H150.188V15.3864H150.46C150.938 13.7614 151.739 12.5341 152.864 11.7045C153.989 10.8636 155.284 10.4432 156.75 10.4432C157.114 10.4432 157.506 10.4659 157.926 10.5114C158.347 10.5568 158.716 10.6193 159.034 10.6989V17.142C158.693 17.0398 158.222 16.9489 157.619 16.8693C157.017 16.7898 156.466 16.75 155.966 16.75C154.898 16.75 153.943 16.983 153.102 17.4489C152.273 17.9034 151.614 18.5398 151.125 19.358C150.648 20.1761 150.409 21.1193 150.409 22.1875V37H143.148ZM178.027 10.8182V16.2727H162.26V10.8182H178.027ZM165.839 4.54545H173.101V28.9545C173.101 29.625 173.203 30.1477 173.408 30.5227C173.612 30.8864 173.896 31.142 174.26 31.2898C174.635 31.4375 175.067 31.5114 175.555 31.5114C175.896 31.5114 176.237 31.483 176.578 31.4261C176.919 31.358 177.18 31.3068 177.362 31.2727L178.504 36.6761C178.141 36.7898 177.629 36.9205 176.97 37.0682C176.311 37.2273 175.51 37.3239 174.567 37.358C172.817 37.4261 171.283 37.1932 169.964 36.6591C168.658 36.125 167.641 35.2955 166.913 34.1705C166.186 33.0455 165.828 31.625 165.839 29.9091V4.54545ZM196.837 10.8182V16.2727H180.678V10.8182H196.837ZM184.376 37V8.92614C184.376 7.02841 184.746 5.45454 185.484 4.20454C186.234 2.95454 187.257 2.01704 188.553 1.39204C189.848 0.767043 191.32 0.454543 192.967 0.454543C194.081 0.454543 195.098 0.539771 196.018 0.710227C196.95 0.880681 197.643 1.03409 198.098 1.17045L196.803 6.625C196.518 6.53409 196.166 6.44886 195.746 6.36932C195.337 6.28977 194.916 6.25 194.484 6.25C193.416 6.25 192.672 6.5 192.251 7C191.831 7.48864 191.621 8.17614 191.621 9.0625V37H184.376ZM212.165 37.5114C209.517 37.5114 207.227 36.9489 205.295 35.8239C203.375 34.6875 201.892 33.108 200.847 31.0852C199.801 29.0511 199.278 26.6932 199.278 24.0114C199.278 21.3068 199.801 18.9432 200.847 16.9205C201.892 14.8864 203.375 13.3068 205.295 12.1818C207.227 11.0455 209.517 10.4773 212.165 10.4773C214.812 10.4773 217.097 11.0455 219.017 12.1818C220.949 13.3068 222.438 14.8864 223.483 16.9205C224.528 18.9432 225.051 21.3068 225.051 24.0114C225.051 26.6932 224.528 29.0511 223.483 31.0852C222.438 33.108 220.949 34.6875 219.017 35.8239C217.097 36.9489 214.812 37.5114 212.165 37.5114ZM212.199 31.8864C213.403 31.8864 214.409 31.5455 215.216 30.8636C216.023 30.1705 216.631 29.2273 217.04 28.0341C217.46 26.8409 217.67 25.483 217.67 23.9602C217.67 22.4375 217.46 21.0795 217.04 19.8864C216.631 18.6932 216.023 17.75 215.216 17.0568C214.409 16.3636 213.403 16.017 212.199 16.017C210.983 16.017 209.96 16.3636 209.131 17.0568C208.313 17.75 207.693 18.6932 207.273 19.8864C206.864 21.0795 206.659 22.4375 206.659 23.9602C206.659 25.483 206.864 26.8409 207.273 28.0341C207.693 29.2273 208.313 30.1705 209.131 30.8636C209.96 31.5455 210.983 31.8864 212.199 31.8864ZM237.034 2.09091V37H229.773V2.09091H237.034ZM242.851 37V10.8182H250.112V37H242.851ZM246.499 7.44318C245.419 7.44318 244.493 7.08523 243.72 6.36932C242.959 5.64204 242.578 4.77273 242.578 3.76136C242.578 2.76136 242.959 1.90341 243.72 1.1875C244.493 0.460226 245.419 0.0965891 246.499 0.0965891C247.578 0.0965891 248.499 0.460226 249.26 1.1875C250.033 1.90341 250.419 2.76136 250.419 3.76136C250.419 4.77273 250.033 5.64204 249.26 6.36932C248.499 7.08523 247.578 7.44318 246.499 7.44318ZM267.759 37.5114C265.111 37.5114 262.821 36.9489 260.889 35.8239C258.969 34.6875 257.486 33.108 256.44 31.0852C255.395 29.0511 254.872 26.6932 254.872 24.0114C254.872 21.3068 255.395 18.9432 256.44 16.9205C257.486 14.8864 258.969 13.3068 260.889 12.1818C262.821 11.0455 265.111 10.4773 267.759 10.4773C270.406 10.4773 272.69 11.0455 274.611 12.1818C276.543 13.3068 278.031 14.8864 279.077 16.9205C280.122 18.9432 280.645 21.3068 280.645 24.0114C280.645 26.6932 280.122 29.0511 279.077 31.0852C278.031 33.108 276.543 34.6875 274.611 35.8239C272.69 36.9489 270.406 37.5114 267.759 37.5114ZM267.793 31.8864C268.997 31.8864 270.003 31.5455 270.81 30.8636C271.616 30.1705 272.224 29.2273 272.634 28.0341C273.054 26.8409 273.264 25.483 273.264 23.9602C273.264 22.4375 273.054 21.0795 272.634 19.8864C272.224 18.6932 271.616 17.75 270.81 17.0568C270.003 16.3636 268.997 16.017 267.793 16.017C266.577 16.017 265.554 16.3636 264.724 17.0568C263.906 17.75 263.287 18.6932 262.866 19.8864C262.457 21.0795 262.253 22.4375 262.253 23.9602C262.253 25.483 262.457 26.8409 262.866 28.0341C263.287 29.2273 263.906 30.1705 264.724 30.8636C265.554 31.5455 266.577 31.8864 267.793 31.8864Z" fill="url(#paint0_linear_1_2732)"/>
<defs>
<linearGradient id="paint0_linear_1_2732" x1="6.24445" y1="25.7521" x2="301.775" y2="27.4931" gradientUnits="userSpaceOnUse">
<stop stop-color="#58AF47"/>
<stop offset="1" stop-color="#0D58AC"/>
</linearGradient>
</defs>
</svg>
