<svg width="10" height="16" viewBox="0 0 10 16" fill="none" xmlns="http://www.w3.org/2000/svg">
<path d="M5 7.63093C4.48546 7.63093 4.0604 7.46314 3.72483 7.12757C3.38926 6.792 3.22148 6.36694 3.22148 5.8524C3.22148 5.33786 3.38926 4.91281 3.72483 4.57724C4.0604 4.24166 4.48546 4.07388 5 4.07388C5.51454 4.07388 5.9396 4.24166 6.27517 4.57724C6.61074 4.91281 6.77852 5.33786 6.77852 5.8524C6.77852 6.36694 6.61074 6.792 6.27517 7.12757C5.9396 7.46314 5.51454 7.63093 5 7.63093ZM5 0.852404C3.56823 0.874775 2.38255 1.35576 1.44295 2.29536C0.503356 3.23495 0.0223714 4.42064 0 5.8524C0.201342 7.8882 1.03468 9.90721 2.5 11.9095C3.96532 13.9117 4.79866 14.9911 5 15.1477C5.20134 14.9911 6.03468 13.9117 7.5 11.9095C8.96532 9.90721 9.79866 7.8882 10 5.8524C9.97763 4.42064 9.49664 3.23495 8.55705 2.29536C7.61745 1.35576 6.43177 0.874775 5 0.852404Z" fill="#0784E2"/>
</svg>
