<svg width="8" height="16" viewBox="0 0 8 16" fill="none" xmlns="http://www.w3.org/2000/svg">
<path d="M8 10.4755C8 11.3492 7.71562 12.1016 7.14687 12.7326C6.57811 13.3635 5.8393 13.7533 4.93044 13.9017V15.4007C4.93044 15.4807 4.90471 15.5463 4.85327 15.5977C4.80182 15.6491 4.73609 15.6748 4.65606 15.6748H3.49854C3.42423 15.6748 3.35993 15.6477 3.30562 15.5934C3.25132 15.5392 3.22417 15.4749 3.22417 15.4007V13.9017C2.8469 13.8504 2.4825 13.7618 2.13096 13.6362C1.77942 13.5106 1.48932 13.3835 1.26068 13.2551C1.03203 13.1266 0.820533 12.9895 0.626185 12.8439C0.431836 12.6983 0.298936 12.5912 0.227484 12.5227C0.156033 12.4542 0.106016 12.4028 0.0774358 12.3685C-0.0197385 12.2486 -0.0254547 12.1315 0.0602874 12.0173L0.94343 10.861C0.983443 10.8039 1.04918 10.7696 1.14064 10.7582C1.22638 10.7468 1.29497 10.7725 1.34642 10.8353C1.34642 10.8353 1.35213 10.841 1.36357 10.8524C2.00949 11.4178 2.704 11.7746 3.4471 11.9231C3.65859 11.9688 3.87009 11.9916 4.08159 11.9916C4.5446 11.9916 4.95187 11.8689 5.30341 11.6233C5.65496 11.3778 5.83073 11.0294 5.83073 10.5783C5.83073 10.4184 5.78786 10.2671 5.70211 10.1244C5.61637 9.9816 5.52063 9.86169 5.41488 9.76461C5.30913 9.66753 5.14193 9.56047 4.91329 9.4434C4.68464 9.32634 4.49601 9.23498 4.34739 9.16931C4.19877 9.10364 3.97012 9.01085 3.66145 8.89093C3.43852 8.79956 3.26275 8.72819 3.13414 8.67679C3.00553 8.6254 2.82976 8.54974 2.60683 8.44981C2.3839 8.34988 2.20527 8.26137 2.07094 8.18428C1.93661 8.10719 1.77513 8.00583 1.5865 7.8802C1.39786 7.75457 1.24496 7.63323 1.12778 7.51617C1.01059 7.39911 0.886269 7.2592 0.754798 7.09646C0.623327 6.93371 0.521865 6.76811 0.450414 6.59966C0.378962 6.4312 0.318943 6.24134 0.270355 6.03005C0.221768 5.81877 0.197475 5.59607 0.197475 5.36194C0.197475 4.57392 0.477565 3.88297 1.03775 3.28909C1.59793 2.69522 2.32674 2.31263 3.22417 2.14132V0.599527C3.22417 0.525293 3.25132 0.461052 3.30562 0.406803C3.35993 0.352555 3.42423 0.325432 3.49854 0.325432H4.65606C4.73609 0.325432 4.80182 0.351128 4.85327 0.402521C4.90471 0.453914 4.93044 0.519583 4.93044 0.599527V2.10705C5.25625 2.14132 5.57207 2.20699 5.87788 2.30406C6.1837 2.40114 6.43235 2.49679 6.62384 2.59101C6.81533 2.68523 6.99682 2.79229 7.1683 2.91221C7.33979 3.03213 7.45125 3.11493 7.5027 3.16061C7.55414 3.20629 7.59701 3.24627 7.63131 3.28053C7.72848 3.38331 7.74277 3.49181 7.67418 3.60602L6.97967 4.85658C6.93394 4.94223 6.86821 4.98792 6.78246 4.99363C6.70244 5.01076 6.62527 4.99077 6.55096 4.93367C6.53381 4.91654 6.49237 4.88228 6.42663 4.83088C6.3609 4.77949 6.24943 4.70383 6.09224 4.6039C5.93505 4.50397 5.76785 4.4126 5.59065 4.3298C5.41345 4.247 5.20052 4.17277 4.95187 4.1071C4.70322 4.04143 4.45885 4.0086 4.21878 4.0086C3.67574 4.0086 3.23274 4.13137 2.88977 4.37691C2.54681 4.62246 2.37532 4.93938 2.37532 5.32768C2.37532 5.47615 2.39962 5.6132 2.4482 5.73883C2.49679 5.86445 2.5811 5.98294 2.70114 6.09429C2.82118 6.20565 2.93407 6.29987 3.03982 6.37696C3.14557 6.45405 3.30562 6.54256 3.51998 6.64249C3.73433 6.74242 3.90725 6.81951 4.03872 6.87375C4.17019 6.928 4.37025 7.00652 4.63891 7.10931C4.94187 7.22351 5.17337 7.31345 5.33342 7.37912C5.49347 7.44479 5.71069 7.54472 5.98506 7.67891C6.25944 7.8131 6.47522 7.93445 6.63241 8.04295C6.78961 8.15144 6.96681 8.2942 7.16401 8.47122C7.36122 8.64824 7.5127 8.82954 7.61845 9.01513C7.7242 9.20072 7.81423 9.41914 7.88854 9.67039C7.96284 9.92164 8 10.19 8 10.4755Z" fill="#0784E2"/>
</svg>
