<svg width="131" height="132" viewBox="0 0 131 132" fill="none" xmlns="http://www.w3.org/2000/svg">
<path d="M31.3646 96.1916C24.3871 96.7579 16.7017 91 12.859 86.0913C8.91514 80.9941 5.98258 75.2362 4.26345 69.1005C2.24098 61.9266 2.03873 54.9411 3.55559 47.5783C4.8702 41.3485 6.89269 35.3073 12.1511 30.8707C24.1849 20.9593 44.6118 22.9416 58.7691 27.0006C72.0165 30.7763 83.1398 38.4223 90.8255 49.2777C98.7131 60.4161 102.556 75.5191 93.4544 87.1299C89.0053 92.7934 82.9378 98.2683 76.2637 101.572C69.2861 104.97 62.3086 106.575 54.6229 107.707C47.241 108.84 38.0388 108.746 30.7579 107.33C28.0275 106.764 25.095 106.009 23.6792 103.554C22.5668 101.667 23.6792 100.345 25.8028 100.156C27.0163 100.062 28.7354 100.817 29.9489 101.006C33.0837 101.572 36.2186 102.044 39.2523 102.894C41.5781 103.554 42.8927 104.593 44.2074 106.386C46.2298 109.218 46.5332 111.295 42.8927 113.088C39.5556 114.787 34.2972 115.07 30.5557 115.07C26.5107 115.07 22.0613 114.787 18.7242 112.616C18.5219 112.427 17.7129 112.05 17.5107 111.672C16.8028 110.35 17.7129 110.068 19.1287 109.879C20.7466 109.69 23.1736 110.539 24.7916 110.917C28.6343 111.672 32.7804 112.9 36.5219 114.41C38.3422 115.165 40.0613 116.297 40.4658 118.28C41.0725 121.206 38.3422 122.716 35.713 123.566C31.9714 124.793 27.8253 123.283 24.1849 122.528C22.9714 122.244 20.6455 121.961 19.8365 120.923C18.2185 118.846 21.5556 118.752 22.8702 118.94C25.095 119.318 27.1174 119.979 29.241 120.734C29.7466 120.923 31.2635 121.3 31.7691 121.678C33.6905 123.094 33.5893 125.359 31.5669 126.775C28.9376 128.663 20.6455 126.869 20.3421 131.495C20.3421 131.967 21.05 132.062 21.3534 131.967C21.6567 131.967 21.9601 131.873 22.3646 131.873C23.5781 131.778 24.3871 130.457 22.668 130.646C22.3646 130.646 22.0613 130.74 21.6567 130.74C21.9601 130.928 22.3646 131.023 22.668 131.212C22.8702 128.946 25.6006 129.607 27.4208 129.419C29.1399 129.23 30.859 128.758 32.3759 128.003C34.3983 126.964 37.9377 124.604 36.1174 122.056C35.1062 120.734 32.6792 120.356 31.1623 119.79C29.3421 119.129 27.623 118.469 25.7017 118.091C23.477 117.619 20.1399 116.958 18.1174 118.374C12.3534 122.433 25.7017 124.699 27.8253 125.076C32.3758 125.926 42.5894 125.265 42.9938 119.318C43.2972 115.637 39.859 113.938 36.7242 112.994C31.668 111.389 26.814 109.784 21.5556 108.935C19.6343 108.652 15.8927 107.896 14.3758 109.407C12.7579 110.917 14.9826 112.711 16.2972 113.654C23.3759 118.469 35.4096 116.77 43.095 114.41C45.3197 113.749 47.8478 112.805 48.2523 110.445C48.8588 107.141 45.0163 103.366 42.0838 102.233C37.9377 100.628 33.0837 100.345 28.6343 99.4009C26.5107 98.9291 23.5781 97.985 21.5556 99.4954C19.5331 101.006 20.3421 103.743 21.859 105.442C24.0837 108.085 28.6343 108.746 31.8702 109.123C50.3757 111.578 72.2184 108.463 86.4768 96.4745C93.8592 90.3392 99.8252 83.1653 101.14 73.7258C102.252 64.8525 98.1064 55.6964 92.9491 48.428C82.0277 32.853 62.4095 23.2248 42.5893 22.7528C32.1736 22.5641 20.9489 23.1304 12.2522 29.0772C3.65671 34.9297 0.926369 45.1242 0.117379 54.5638C-0.691609 64.8525 2.7466 75.1418 8.40955 83.8261C13.0612 90.9055 21.5556 98.3628 31.0612 97.5131C32.1736 97.4187 33.0837 96.0971 31.3646 96.1916Z" fill="#757575"/>
<path d="M37.1287 95.4364C39.2523 90.3392 40.1624 84.3924 37.7354 79.1063C34.904 72.9706 32.0725 67.4956 33.2859 60.6995C33.7916 57.7731 37.3309 48.8998 42.286 54.2804C43.7017 55.8853 43.6006 58.2449 43.3984 60.1328C43.2972 61.0769 42.8927 62.021 42.7916 62.9647C42.0837 64.3807 42.1849 64.2862 43.1961 62.7758C43.2972 62.304 43.3984 61.9266 43.4995 61.4543C44.2073 58.6228 44.8141 55.0356 47.8478 53.2422C55.533 48.8058 53.6118 56.3571 53.106 59.378C52.8026 61.2658 50.9824 64.2862 51.1848 66.1741C51.2858 68.1563 52.1959 64.947 52.2973 64.6641C52.4993 64.0973 52.7017 63.6255 53.005 63.0592C53.8142 61.1713 54.8253 59.6609 57.0498 59.0946C59.6792 58.4339 61.6004 59.0946 62.1062 61.3603C63.5221 67.7789 58.2633 74.5755 53.6118 78.7285C49.3646 82.5046 46.1287 87.1299 42.7916 91.5663C42.1849 92.416 44.6118 92.2271 45.1174 91.6608C48.5554 87.1299 51.6906 82.5046 56.0387 78.7285C59.4768 75.8025 62.612 71.7435 63.8254 67.4956C64.6341 64.8525 65.8476 60.0388 62.7129 58.3394C59.8816 56.829 56.3421 57.7731 53.8142 59.2835C51.4882 60.6995 50.2747 63.3425 49.567 65.7967C49.0612 67.4956 49.567 69.1005 51.7915 68.1563C54.0161 67.2126 54.5219 63.531 55.0277 61.6432C55.7354 59.2835 57.6566 53.0533 54.7243 51.26C51.8925 49.5606 47.5444 51.7318 45.4208 53.4312C42.6905 55.7908 39.4545 61.5487 41.0725 65.0415C41.1736 65.3248 41.5781 65.4188 41.7803 65.4188C45.7242 65.5133 46.0275 60.3217 45.9264 57.5842C45.6231 52.2036 39.9601 50.6937 35.4095 53.2422C29.6455 56.4516 29.7467 64.947 31.1623 70.2331C32.2747 74.3866 35.0051 77.9733 36.1174 82.1267C37.432 86.8465 36.5219 91.5663 34.6006 96.0027C34.2972 96.4745 36.8253 96.1916 37.1287 95.4364Z" fill="#757575"/>
<path d="M13.5669 19.5435C11.3421 17.8443 10.0275 14.9181 8.81403 12.5582C7.70165 10.2928 6.18479 7.74415 5.47694 5.28989C4.76907 5.47867 3.96008 5.66746 3.15109 5.95065C3.25221 6.04506 3.25221 6.23385 3.35334 6.32822C3.65671 7.08339 6.08369 6.42263 5.78031 5.66746C5.67921 5.57309 5.67921 5.38431 5.57805 5.28989C5.27468 4.53475 2.84772 5.10111 3.15109 5.95065C3.85896 8.6881 5.57805 11.6143 6.9938 14.163C8.10618 16.334 9.42077 18.9771 11.4433 20.4874C12.05 20.9593 14.2747 20.1098 13.5669 19.5435Z" fill="#757575"/>
<path d="M54.2185 14.7293C54.2185 14.8237 54.2185 14.9181 54.1175 15.0125C54.9262 14.9181 55.7354 14.8237 56.5445 14.7293C57.5556 9.91521 59.9826 5.38431 59.5782 0.381399C59.4768 -0.468149 57.2522 0.287005 57.1513 0.85337C57.1513 0.947765 57.0498 1.04216 57.0498 1.13655C56.8479 1.9861 59.2749 1.60853 59.4768 0.85337C59.4768 0.758974 59.5782 0.664584 59.5782 0.570188C58.7691 0.758974 57.9599 0.85337 57.1513 1.04216C57.5556 5.95065 55.1286 10.3872 54.1175 15.0125C53.9151 15.862 56.3421 15.4845 56.5445 14.7293C56.5445 14.6349 56.5445 14.5405 56.6455 14.4462C56.8479 13.691 54.4209 13.9742 54.2185 14.7293Z" fill="#757575"/>
<path d="M104.275 43.5199C106.095 42.3871 107.915 41.3487 109.736 40.216C111.556 38.9888 113.174 37.384 114.893 35.9681C114.185 35.9681 113.376 35.9681 112.669 35.9681C112.567 36.2513 112.466 36.44 112.365 36.7232C112.062 37.4784 114.489 37.1952 114.792 36.44C114.893 36.1568 114.994 35.9681 115.096 35.6848C115.5 34.8353 113.174 35.4016 112.871 35.6848C111.253 37.1008 109.736 38.6112 107.915 39.8383C106.196 40.9711 104.477 42.0095 102.657 43.0479C101.342 43.7087 103.466 43.9918 104.275 43.5199Z" fill="#757575"/>
<path d="M114.185 77.5014C114.185 77.5959 114.185 77.6903 114.185 77.8793C114.185 78.1622 114.69 78.2566 114.893 78.2566C117.117 78.3511 119.14 77.5014 121.264 76.8407C122.376 76.4633 123.59 76.1799 124.803 75.8025C126.017 75.4247 127.735 74.481 129.05 74.6695C129.859 74.7639 131.882 73.5369 130.567 73.4424C128.544 73.2539 127.028 73.8202 125.207 74.481C122.679 75.3302 118.634 77.124 115.904 77.0296C116.106 77.124 116.41 77.2185 116.612 77.407C116.612 77.3125 116.612 77.2185 116.612 77.0296C116.612 76.0854 114.084 76.6517 114.185 77.5014Z" fill="#757575"/>
</svg>
