<svg width="125" height="68" viewBox="0 0 125 68" fill="none" xmlns="http://www.w3.org/2000/svg">
<path d="M13.3888 8.54219C19.4693 12.8186 25.0819 11.6828 31.9641 4.66687C37.51 -0.945857 41.586 -1.3469 46.731 3.19674C55.0165 10.4799 61.1638 11.6825 66.7765 7.07205C73.1911 1.79342 74.327 1.12497 77.0665 1.12497C80.207 1.12497 81.9443 1.99374 84.1493 4.59965C90.0293 11.5487 96.3102 11.816 103.861 5.26783C111.411 -1.28035 121.033 0.657508 114.418 7.40615C105.999 15.9589 92.702 18.2308 81.9443 12.8854L77.1334 10.4795L72.9238 12.6178C65.1729 16.6269 50.0051 15.4909 42.8556 10.4795L41.0515 9.21037L37.8442 11.4818C27.5542 18.765 0.693359 16.7607 0.693359 8.74251C0.693359 5.4016 8.71154 5.2681 13.3888 8.54219Z" fill="#212222"/>
<path d="M31.296 30.726C36.1737 26.9842 39.0469 25.2464 48.6687 31.1262C57.6893 36.6053 60.6293 36.4717 69.9839 30.124C75.463 26.3823 77.6012 26.4488 85.753 30.5249C95.1743 35.269 102.391 35.269 105.331 30.5249C107.669 26.7829 117.625 26.5161 117.625 30.2576C117.625 37.8749 95.4416 42.2849 83.4811 37.0062L77.668 34.4671L74.4607 36.4717C65.908 41.6835 53.2793 41.884 43.4571 36.8726L39.9824 35.0692L34.7038 37.474C21.9415 43.2871 7.10784 43.1542 1.56193 37.0737C-1.24444 33.9333 6.10556 32.7299 12.1192 35.269C17.3978 37.5408 24.6142 35.871 31.296 30.726Z" fill="#212222"/>
<path d="M88.5593 53.1104C100.453 58.5227 104.596 58.3883 111.144 52.642C119.897 44.8911 129.051 47.6306 120.899 55.5152C112.28 63.9343 96.9783 65.0702 83.5479 58.2547L80.2738 56.5843L76.0643 58.9229C67.5784 63.6002 56.2861 64.5356 47.1319 61.3283L43.39 59.992L39.9156 62.197C30.3606 68.2774 15.3932 68.8788 7.24134 63.5333C0.158616 58.8561 6.8405 55.8493 15.126 59.9252C19.4023 62.0633 22.5428 62.3981 26.2178 61.1286C28.2892 60.3936 29.7591 59.5243 36.3072 54.7133C39.4477 52.4415 45.0605 52.642 50.2055 55.1811C58.0902 59.1902 64.772 58.1879 72.5897 51.8402C76.1979 49.0338 80.207 49.3017 88.5593 53.1104Z" fill="#212222"/>
</svg>
