<svg width="23" height="23" viewBox="0 0 23 23" fill="none" xmlns="http://www.w3.org/2000/svg">
<path fill-rule="evenodd" clip-rule="evenodd" d="M22.54 11.7614C22.54 10.9459 22.4668 10.1618 22.3309 9.40909H11.5V13.8575H17.6891C17.4225 15.295 16.6123 16.513 15.3943 17.3284V20.2139H19.1109C21.2855 18.2118 22.54 15.2636 22.54 11.7614Z" fill="#4285F4"/>
<path fill-rule="evenodd" clip-rule="evenodd" d="M11.4999 22.9998C14.6049 22.9998 17.2082 21.9702 19.1109 20.2139L15.3943 17.3284C14.3645 18.0184 13.0472 18.426 11.4999 18.426C8.50469 18.426 5.96946 16.403 5.06515 13.6848H1.2231V16.6644C3.11537 20.4228 7.00446 22.9998 11.4999 22.9998Z" fill="#34A853"/>
<path fill-rule="evenodd" clip-rule="evenodd" d="M5.06515 13.6848C4.83515 12.9948 4.70455 12.258 4.70455 11.5001C4.70455 10.7421 4.83523 10.0051 5.06523 9.31506V6.33552H1.22318C0.444318 7.88802 0 9.64438 0 11.5001C0 13.3557 0.444237 15.1119 1.2231 16.6644L5.06515 13.6848Z" fill="#FBBC05"/>
<path fill-rule="evenodd" clip-rule="evenodd" d="M11.4999 4.57386C13.1883 4.57386 14.7042 5.15409 15.8961 6.29364L19.1945 2.99523C17.2029 1.13955 14.5997 0 11.4999 0C7.00447 0 3.11545 2.57711 1.22318 6.33552L5.06523 9.31506C5.96955 6.59688 8.50469 4.57386 11.4999 4.57386Z" fill="#EA4335"/>
</svg>
